<svg width="129" height="43" fill="none" xmlns="http://www.w3.org/2000/svg"><g clip-path="url(#a)"><g clip-path="url(#b)"><rect x=".5" y=".5" width="128" height="42" rx="8.1" stroke="#fff"/></g><path fill-rule="evenodd" clip-rule="evenodd" d="M63.526 9.071h.955v6.73h-.955v-6.73zm-22.863.316a2.838 2.838 0 0 1 3.018 3.187c0 2.05-1.107 3.228-3.018 3.228h-2.317V9.387h2.317zm-1.32 5.507h1.209a2.016 2.016 0 0 0 2.115-2.307 2.022 2.022 0 0 0-2.115-2.293h-1.21v4.6zM80.28 31.258c-1.757 0-3.043-.869-3.192-2.193h-2.044c.129 2.415 2.127 3.942 5.088 3.942 3.164 0 5.153-1.564 5.153-4.061 0-1.953-1.138-3.053-3.877-3.701l-1.47-.361c-1.721-.425-2.424-.98-2.424-1.924 0-1.184 1.1-1.998 2.71-1.998 1.61 0 2.71.804 2.832 2.136h2.016c-.065-2.303-1.999-3.885-4.82-3.885-2.85 0-4.857 1.582-4.857 3.885 0 1.86 1.138 3.007 3.59 3.599l1.73.417c1.73.425 2.46 1.045 2.46 2.081 0 1.194-1.211 2.063-2.895 2.063zm-39.894-2.082h5.089l1.22 3.608h2.193l-4.82-13.35h-2.24l-4.819 13.35h2.155l1.222-3.608zm4.56-1.665h-4.032l1.989-5.856h.056l1.988 5.856zm10.289 5.375c2.443 0 4.061-1.944 4.061-4.968 0-3.016-1.628-4.969-4.098-4.969a3.451 3.451 0 0 0-3.1 1.72h-.036v-1.618h-1.934v12.952h1.998v-4.82h.046a3.3 3.3 0 0 0 3.063 1.703zm-.564-8.234c1.554 0 2.572 1.295 2.572 3.266 0 1.988-1.018 3.274-2.572 3.274-1.526 0-2.553-1.313-2.553-3.274 0-1.943 1.026-3.266 2.553-3.266zm15.338 3.266c0 3.024-1.619 4.968-4.062 4.968a3.3 3.3 0 0 1-3.062-1.703h-.046v4.82H60.84V23.051h1.934v1.619h.036a3.453 3.453 0 0 1 3.1-1.72c2.47 0 4.098 1.952 4.098 4.968zm-2.053 0c0-1.97-1.019-3.266-2.573-3.266-1.526 0-2.553 1.323-2.553 3.266 0 1.96 1.027 3.274 2.553 3.274 1.554 0 2.573-1.286 2.573-3.274zm21.641-7.168v2.303h1.85v1.582h-1.85v5.366c0 .833.37 1.222 1.184 1.222.22-.004.44-.02.657-.046v1.572c-.365.069-.737.1-1.11.093-1.97 0-2.738-.74-2.738-2.628v-5.579h-1.415v-1.582h1.415V20.75h2.007zm7.538 2.184c-2.812 0-4.616 1.924-4.616 4.986 0 3.07 1.786 4.987 4.616 4.987 2.832 0 4.618-1.916 4.618-4.987 0-3.062-1.796-4.986-4.618-4.986zm0 1.646c1.62 0 2.582 1.24 2.582 3.34 0 2.11-.963 3.34-2.582 3.34-1.618 0-2.58-1.23-2.58-3.34 0-2.091.962-3.34 2.58-3.34zm6.265-1.53h1.905v1.657h.047a2.323 2.323 0 0 1 2.341-1.758c.23 0 .46.024.684.074v1.87a2.789 2.789 0 0 0-.897-.122 2.017 2.017 0 0 0-1.556.641 2.008 2.008 0 0 0-.526 1.599v5.772H103.4v-9.732zm9.997 9.857c2.202 0 3.922-1.213 4.191-2.98h-1.897a2.2 2.2 0 0 1-2.248 1.37 2.533 2.533 0 0 1-2.618-2.757v-.121h6.874v-.685c0-2.95-1.693-4.8-4.386-4.8-2.738 0-4.504 1.98-4.504 5.032 0 3.044 1.757 4.94 4.588 4.94zm2.304-5.884h-4.866a2.462 2.462 0 0 1 2.478-2.47 2.337 2.337 0 0 1 2.244 1.523c.113.302.161.625.144.947zM44.914 12.437c-.101.304-.138.625-.107.943a2.294 2.294 0 1 0 4.565 0 2.292 2.292 0 0 0-3.21-2.316 2.292 2.292 0 0 0-1.248 1.373zm2.177-.72c.827 0 1.299.613 1.299 1.663 0 1.053-.472 1.666-1.299 1.666-.83 0-1.297-.609-1.297-1.666 0-1.05.467-1.663 1.297-1.663zm8.35 4.085h-.99l-1.001-3.566h-.076l-.996 3.566h-.982l-1.334-4.841h.969l.867 3.694h.072l.995-3.694h.916l.995 3.694h.076l.863-3.694h.955l-1.329 4.84zm3.371-4.841h-.92v4.84h.956V12.97a1.111 1.111 0 0 1 1.156-1.226c.706 0 1.044.386 1.044 1.164v2.894h.956v-3.133a1.576 1.576 0 0 0-1.676-1.8 1.449 1.449 0 0 0-1.445.861h-.07v-.768zm7.104 1.475c-.1.303-.137.624-.107.942a2.294 2.294 0 1 0 4.566 0 2.292 2.292 0 0 0-3.21-2.316 2.293 2.293 0 0 0-1.249 1.374zm2.178-.721c.827 0 1.298.614 1.298 1.663 0 1.053-.471 1.666-1.298 1.666-.83 0-1.298-.608-1.298-1.666 0-1.05.467-1.663 1.297-1.663zm3.287 2.718c0-.871.649-1.373 1.8-1.445l1.312-.075v-.418c0-.511-.338-.8-.991-.8-.534 0-.903.196-1.01.538h-.924c.097-.832.88-1.365 1.978-1.365 1.213 0 1.898.604 1.898 1.627v3.307h-.92v-.68h-.076a1.629 1.629 0 0 1-1.453.76 1.461 1.461 0 0 1-1.614-1.449zm3.112-.413v-.405l-1.182.075c-.667.045-.97.272-.97.699 0 .435.379.689.898.689a1.142 1.142 0 0 0 1.254-1.058zm4.216-3.14c-1.224 0-2.01.97-2.01 2.5 0 1.532.778 2.501 2.01 2.501a1.68 1.68 0 0 0 1.52-.844h.075v.765h.916v-6.73h-.956v2.658h-.071a1.596 1.596 0 0 0-1.484-.85zm.27 4.144c-.809 0-1.293-.618-1.293-1.645 0-1.018.49-1.64 1.293-1.64.8 0 1.303.635 1.303 1.644 0 1.014-.497 1.64-1.303 1.64zm6.193-1.644a2.293 2.293 0 1 1 4.566 0 2.292 2.292 0 0 1-4.46.943 2.294 2.294 0 0 1-.106-.943zm3.583 0c0-1.05-.471-1.663-1.298-1.663-.83 0-1.298.613-1.298 1.663 0 1.057.467 1.666 1.298 1.666.827 0 1.298-.613 1.298-1.666zm3.184-2.42h-.92v4.841h.956V12.97a1.111 1.111 0 0 1 1.156-1.226c.706 0 1.044.386 1.044 1.164v2.894h.956v-3.133a1.574 1.574 0 0 0-1.676-1.8 1.449 1.449 0 0 0-1.444.861h-.072v-.768zm8.59-1.205v1.227h1.048v.805h-1.048v2.489c0 .507.208.729.684.729.122 0 .243-.008.364-.022v.796c-.171.03-.345.047-.519.049-1.063 0-1.486-.374-1.486-1.307v-2.734h-.768v-.805h.768V9.755h.957zm3.3-.684h-.947v6.73h.956v-2.826a1.124 1.124 0 0 1 .324-.898 1.126 1.126 0 0 1 .895-.33c.675 0 1.035.392 1.035 1.165v2.89h.956v-3.126a1.594 1.594 0 0 0-1.667-1.804 1.49 1.49 0 0 0-1.476.867h-.076V9.07zm8.789 5.422a1.963 1.963 0 0 1-2.097 1.4 2.2 2.2 0 0 1-2.236-2.498 2.224 2.224 0 0 1 .539-1.774 2.226 2.226 0 0 1 1.693-.755c1.347 0 2.159.92 2.159 2.44v.334h-3.418v.053c-.015.178.007.357.066.525a1.266 1.266 0 0 0 .704.759c.164.07.341.105.519.103a1.16 1.16 0 0 0 1.152-.587h.919zm-3.36-1.56h2.445a1.165 1.165 0 0 0-.716-1.164 1.171 1.171 0 0 0-.476-.09 1.237 1.237 0 0 0-1.253 1.254zm-85.568.196a5.238 5.238 0 0 0 1.198-3.753 5.33 5.33 0 0 0-3.448 1.784 4.985 4.985 0 0 0-1.23 3.614 4.405 4.405 0 0 0 3.48-1.645zm2.936 8.695a5.32 5.32 0 0 1 2.534-4.464 5.446 5.446 0 0 0-4.29-2.32c-1.105-.115-2.189.315-3.074.667-.562.223-1.045.414-1.402.414-.406 0-.902-.2-1.459-.423-.727-.292-1.556-.625-2.42-.607a5.715 5.715 0 0 0-4.809 2.932c-2.079 3.6-.528 8.89 1.464 11.8.996 1.424 2.16 3.016 3.685 2.96.69-.03 1.181-.236 1.688-.449.586-.246 1.194-.502 2.16-.502.91 0 1.492.248 2.05.485.535.228 1.049.447 1.81.43 1.6-.026 2.608-1.431 3.57-2.87a11.78 11.78 0 0 0 1.632-3.324 5.14 5.14 0 0 1-3.139-4.73z" fill="#fff"/></g><defs><clipPath id="a"><path fill="#fff" d="M0 0h129v43H0z"/></clipPath><clipPath id="b"><path fill="#fff" d="M0 0h129v43H0z"/></clipPath></defs></svg>