<svg width="769" height="513" viewBox="0 0 769 513" fill="none" xmlns="http://www.w3.org/2000/svg">
<g clip-path="url(#clip0_96_276)">
<path d="M256.333 128.25C256.333 199.08 198.95 256.5 128.167 256.5C57.3827 256.5 -0.000102278 199.08 -9.91821e-05 128.25L256.333 128.25Z" fill="#20203F"/>
<path fill-rule="evenodd" clip-rule="evenodd" d="M128.167 384.75C128.167 313.92 70.7839 256.5 -2.81334e-05 256.5L-3.37394e-05 384.75C-3.68355e-05 455.58 57.3827 513 128.167 513L128.167 384.75Z" fill="#1C1C3C"/>
<path d="M256.333 256.5C256.333 327.33 198.95 384.75 128.167 384.75L128.167 256.5L256.333 256.5Z" fill="#161633"/>
<path d="M128.167 64.125C128.167 28.7097 99.4756 4.33537e-06 64.0833 2.7929e-06C28.6911 1.25042e-06 4.35104e-06 28.7097 2.80299e-06 64.125C1.25494e-06 99.5403 28.6911 128.25 64.0833 128.25C99.4756 128.25 128.167 99.5403 128.167 64.125Z" fill="#161633"/>
<path d="M256.333 64.125C256.333 28.7097 227.642 4.33537e-06 192.25 2.7929e-06C156.858 1.25042e-06 128.167 28.7097 128.167 64.125C128.167 99.5403 156.858 128.25 192.25 128.25C227.642 128.25 256.333 99.5403 256.333 64.125Z" fill="#1C1C3C"/>
<path d="M256.333 448.875C256.333 413.46 227.642 384.75 192.25 384.75C156.858 384.75 128.167 413.46 128.167 448.875C128.167 484.29 156.858 513 192.25 513C227.642 513 256.333 484.29 256.333 448.875Z" fill="#161633"/>
<path d="M769 513C698.216 513 640.833 455.58 640.833 384.75C640.833 313.92 698.216 256.5 769 256.5L769 513Z" fill="#20203F"/>
<path d="M512.667 256.5C512.667 327.33 455.284 384.75 384.5 384.75C313.716 384.75 256.333 327.33 256.333 256.5L512.667 256.5Z" fill="#20203F"/>
<path d="M512.667 128.25C512.667 57.4201 570.049 2.00774e-05 640.833 4.48443e-05C711.617 6.96108e-05 769 57.4202 769 128.25L512.667 128.25Z" fill="#20203F"/>
<path d="M512.667 384.75C512.667 455.58 455.284 513 384.5 513C313.716 513 256.333 455.58 256.333 384.75L512.667 384.75Z" fill="#161633"/>
<path fill-rule="evenodd" clip-rule="evenodd" d="M640.833 384.75C640.833 313.92 583.451 256.5 512.667 256.5L512.667 384.75C512.667 455.58 570.049 513 640.833 513L640.833 384.75Z" fill="#1C1C3C"/>
<path d="M576.75 128.25C541.358 128.25 512.667 156.96 512.667 192.375C512.667 227.79 541.358 256.5 576.75 256.5C612.142 256.5 640.833 227.79 640.833 192.375C640.833 156.96 612.142 128.25 576.75 128.25Z" fill="#161633"/>
<path d="M704.917 256.5C669.525 256.5 640.833 227.79 640.833 192.375C640.833 156.96 669.525 128.25 704.917 128.25C740.309 128.25 769 156.96 769 192.375L769 256.5L704.917 256.5Z" fill="#161633"/>
<path d="M384.5 -5.5858e-06C455.284 -2.50087e-06 512.667 57.4194 512.667 128.25C512.667 199.08 455.284 256.5 384.5 256.5C313.716 256.5 256.333 199.08 256.333 128.25L256.333 -1.11716e-05L384.5 -5.5858e-06Z" fill="#161633"/>
</g>
<defs>
<clipPath id="clip0_96_276">
<rect x="769" width="513" height="769" transform="rotate(90 769 0)" fill="white"/>
</clipPath>
</defs>
</svg>
