<svg width="129" height="43" viewBox="0 0 129 43" fill="none" xmlns="http://www.w3.org/2000/svg">
<g clip-path="url(#clip0_18_9279)">
<g clip-path="url(#clip1_18_9279)">
<rect x="0.5" y="0.5" width="128" height="42" rx="8.1" stroke="white"/>
</g>
<path d="M65.7265 24.0089C63.5135 24.0089 61.7098 25.6913 61.7098 28.0106C61.7098 30.3148 63.5135 32.0122 65.7265 32.0122C67.9395 32.0122 69.7432 30.3148 69.7432 28.0106C69.7432 25.6913 67.9395 24.0089 65.7265 24.0089ZM65.7265 30.4362C64.5137 30.4362 63.4674 29.436 63.4674 28.0106C63.4674 26.5701 64.5137 25.5849 65.7265 25.5849C66.9393 25.5849 67.9846 26.5701 67.9846 28.0106C67.9846 29.4351 66.9393 30.4362 65.7265 30.4362ZM56.963 24.0089C54.75 24.0089 52.9463 25.6913 52.9463 28.0106C52.9463 30.3148 54.75 32.0122 56.963 32.0122C59.176 32.0122 60.9797 30.3148 60.9797 28.0106C60.9806 25.6913 59.176 24.0089 56.963 24.0089ZM56.963 30.4362C55.7502 30.4362 54.7049 29.436 54.7049 28.0106C54.7049 26.5701 55.7511 25.5849 56.963 25.5849C58.1758 25.5849 59.2211 26.5701 59.2211 28.0106C59.2221 29.4351 58.1758 30.4362 56.963 30.4362ZM46.5398 25.2368V26.9342H50.6025C50.4812 27.8892 50.1631 28.5864 49.6776 29.0719C49.0868 29.6628 48.1619 30.3148 46.5398 30.3148C44.0389 30.3148 42.0837 28.2985 42.0837 25.7976C42.0837 23.2967 44.0389 21.2803 46.5398 21.2803C47.889 21.2803 48.8741 21.811 49.6014 22.4932L50.7992 21.2954C49.784 20.3253 48.4347 19.582 46.5398 19.582C43.114 19.582 40.2339 22.3708 40.2339 25.7966C40.2339 29.2224 43.114 32.0113 46.5398 32.0113C48.3886 32.0113 49.784 31.4053 50.8754 30.2678C51.997 29.1462 52.346 27.5693 52.346 26.2963C52.346 25.902 52.3159 25.5379 52.2548 25.2349H46.5398V25.2368ZM89.1698 26.555C88.8368 25.6602 87.8206 24.008 85.744 24.008C83.6825 24.008 81.9701 25.6301 81.9701 28.0096C81.9701 30.2527 83.6675 32.0113 85.9416 32.0113C87.7754 32.0113 88.8368 30.8897 89.2762 30.2377L87.9119 29.3278C87.4574 29.9949 86.8355 30.4343 85.9416 30.4343C85.0468 30.4343 84.4108 30.025 84.0015 29.2215L89.3524 27.0085L89.1698 26.555ZM83.7126 27.8892C83.6675 26.3433 84.9104 25.5548 85.8043 25.5548C86.5015 25.5548 87.0923 25.903 87.2899 26.4035L83.7126 27.8892ZM79.3619 31.7694H81.1205V20.0073H79.3619V31.7694ZM76.4819 24.9028H76.4216C76.0274 24.4333 75.27 24.008 74.315 24.008C72.3137 24.008 70.4799 25.7665 70.4799 28.0247C70.4799 30.2678 72.3137 32.0113 74.315 32.0113C75.27 32.0113 76.0274 31.5869 76.4216 31.1014H76.4819V31.6772C76.4819 33.2081 75.6633 34.0266 74.3442 34.0266C73.2678 34.0266 72.6007 33.2532 72.3278 32.6021L70.797 33.2391C71.2364 34.3004 72.404 35.6036 74.3442 35.6036C76.4057 35.6036 78.1491 34.3908 78.1491 31.4354V24.2508H76.4819V24.9028ZM74.4665 30.4362C73.2537 30.4362 72.2384 29.421 72.2384 28.0256C72.2384 26.6162 73.2537 25.5849 74.4665 25.5849C75.6642 25.5849 76.6032 26.6152 76.6032 28.0256C76.6032 29.42 75.6642 30.4362 74.4665 30.4362ZM97.4064 20.0073H93.1997V31.7694H94.9545V27.3134H97.4055C99.3513 27.3134 101.264 25.9048 101.264 23.6608C101.264 21.4168 99.3522 20.0073 97.4064 20.0073ZM97.4516 25.6762H94.9545V21.6445H97.4516C98.7641 21.6445 99.5093 22.7312 99.5093 23.6608C99.5093 24.5716 98.7641 25.6762 97.4516 25.6762ZM108.302 23.9873C107.031 23.9873 105.715 24.5471 105.17 25.7882L106.729 26.4393C107.062 25.7882 107.682 25.5765 108.333 25.5765C109.241 25.5765 110.164 26.1212 110.179 27.0894V27.2108C109.861 27.0292 109.18 26.7564 108.348 26.7564C106.669 26.7564 104.958 27.6794 104.958 29.405C104.958 30.9791 106.336 31.9924 107.879 31.9924C109.059 31.9924 109.71 31.4627 110.118 30.8427H110.178V31.7506H111.873V27.2409C111.873 25.1521 110.315 23.9873 108.302 23.9873ZM108.089 30.4334C107.514 30.4334 106.712 30.1455 106.712 29.4351C106.712 28.5271 107.711 28.179 108.573 28.179C109.345 28.179 109.708 28.3455 110.177 28.5723C110.042 29.6618 109.104 30.4334 108.089 30.4334ZM118.047 24.2442L116.034 29.3438H115.974L113.886 24.2442H111.995L115.127 31.3714L113.341 35.3364H115.172L120 24.2442H118.047ZM102.233 31.7694H103.989V20.0073H102.233V31.7694Z" fill="white"/>
<path d="M11.4356 10.6361C11.1618 10.9259 11 11.3756 11 11.958V32.7669C11 33.3502 11.1618 33.799 11.4356 34.0888L11.5053 34.1566L23.162 22.4998V22.3624V22.2251L11.5053 10.5674L11.4356 10.6361Z" fill="url(#paint0_linear_18_9279)"/>
<path d="M27.048 26.3883L23.1631 22.5015V22.3641V22.2267L27.049 18.3408L27.1365 18.3907L31.7403 21.0064C33.0557 21.7534 33.0557 22.9757 31.7403 23.7237L27.1365 26.3394L27.048 26.3883Z" fill="url(#paint1_linear_18_9279)"/>
<path d="M27.1363 26.3376L23.1629 22.3633L11.4355 34.0897C11.8693 34.5488 12.5844 34.6053 13.3907 34.1471L27.1363 26.3376Z" fill="url(#paint2_linear_18_9279)"/>
<path d="M27.1363 18.3884L13.3917 10.579C12.5854 10.1208 11.8703 10.1782 11.4365 10.6364L23.1629 22.3628L27.1363 18.3884Z" fill="url(#paint3_linear_18_9279)"/>
<path opacity="0.2" d="M27.0488 26.251L13.3917 34.0105C12.6277 34.4443 11.9446 34.4161 11.5061 34.0209L11.4355 34.0915L11.5052 34.1592C11.9436 34.5544 12.6267 34.5835 13.3907 34.1488L27.1353 26.3394L27.0488 26.251Z" fill="black"/>
<path opacity="0.12" d="M11.4356 33.9528C11.1618 33.663 11 33.2133 11 32.6309V32.7682C11 33.3506 11.1618 33.8004 11.4356 34.0902L11.5062 34.0196L11.4356 33.9528Z" fill="black"/>
<path opacity="0.12" d="M31.7401 23.5836L27.0488 26.2492L27.1363 26.3367L31.7401 23.721C32.3978 23.3475 32.7262 22.8554 32.7262 22.3633C32.6707 22.8083 32.3357 23.2449 31.7401 23.5836Z" fill="black"/>
<path opacity="0.25" d="M13.3908 10.7168L31.7392 21.142C32.3357 21.4807 32.6697 21.9172 32.7253 22.3632C32.7253 21.8711 32.3969 21.3781 31.7392 21.0046L13.3908 10.5795C12.0754 9.8324 11 10.4524 11 11.9588V12.0971C11 10.5908 12.0764 9.96977 13.3908 10.7168Z" fill="#191A32"/>
<path fill-rule="evenodd" clip-rule="evenodd" d="M70.8756 15.0432C70.3204 15.6143 69.6308 15.8985 68.8056 15.8985C67.9804 15.8985 67.2908 15.6134 66.7366 15.0432C66.1814 14.473 65.9048 13.7749 65.9048 12.9497C65.9048 12.1245 66.1814 11.4264 66.7366 10.8562C67.2908 10.2851 67.9804 10 68.8056 10C69.626 10 70.3148 10.287 70.8718 10.86C71.4288 11.433 71.7073 12.1292 71.7073 12.9497C71.7073 13.7758 71.4297 14.474 70.8756 15.0432ZM67.2719 14.5709C67.6897 14.9943 68.2006 15.205 68.8056 15.205C69.4106 15.205 69.9215 14.9933 70.3393 14.5709C70.757 14.1475 70.9668 13.6074 70.9668 12.9506C70.9668 12.2939 70.757 11.7529 70.3393 11.3304C69.9224 10.907 69.4106 10.6963 68.8056 10.6963C68.2006 10.6963 67.6897 10.908 67.2719 11.3304C66.8551 11.7538 66.6453 12.2939 66.6453 12.9506C66.6453 13.6074 66.8551 14.1475 67.2719 14.5709ZM46.2329 13.1803C46.2329 13.9688 45.9995 14.5964 45.5319 15.0649C45.0012 15.622 44.3087 15.9005 43.4582 15.9005C42.6433 15.9005 41.9499 15.6182 41.3807 15.0537C40.8105 14.4882 40.5254 13.7882 40.5254 12.9526C40.5254 12.1162 40.8105 11.4162 41.3807 10.8516C41.9499 10.2861 42.6433 10.0039 43.4582 10.0039C43.8627 10.0039 44.2495 10.0829 44.6164 10.24C44.9843 10.3981 45.2788 10.6079 45.499 10.8704L45.0031 11.3672C44.6296 10.9203 44.1149 10.6973 43.4572 10.6973C42.8626 10.6973 42.3488 10.9062 41.9151 11.3239C41.4823 11.7417 41.2659 12.2837 41.2659 12.9517C41.2659 13.6197 41.4823 14.1617 41.916 14.5804C42.3498 14.9981 42.8635 15.207 43.4582 15.207C44.0886 15.207 44.6145 14.9972 45.0351 14.5766C45.308 14.3028 45.466 13.9218 45.5084 13.4334H43.4582V12.7541H46.1933C46.2206 12.9018 46.2329 13.0439 46.2329 13.1803ZM50.5704 10.8223H47.9998V12.6119H50.3182V13.2903H47.9998V15.0799H50.5704V15.7743H47.2744V10.1289H50.5704V10.8223ZM52.9026 15.7743H53.6281V10.8223H55.205V10.1289H51.3257V10.8223H52.9026V15.7743ZM58.0127 15.7743V10.1289H58.7381V15.7743H58.0127ZM61.2289 15.7743H61.9543V10.8223H63.5313V10.1289H59.6519V10.8223H61.2289V15.7743ZM72.7256 10.1289V15.7743H73.4492V12.2572L73.4181 11.1695H73.4492L76.3198 15.7743H77.0772V10.1289H76.3518V13.4333L76.3829 14.521H76.3518L73.6082 10.1289H72.7256Z" fill="white"/>
<path d="M70.8756 15.0432L70.8081 14.9776L70.8081 14.9776L70.8756 15.0432ZM66.7366 15.0432L66.804 14.9776L66.804 14.9776L66.7366 15.0432ZM66.7366 10.8562L66.804 10.9219L66.8041 10.9217L66.7366 10.8562ZM70.8718 10.86L70.9393 10.7944V10.7944L70.8718 10.86ZM67.2719 14.5709L67.2049 14.6369L67.205 14.637L67.2719 14.5709ZM70.3393 14.5709L70.4062 14.637L70.4062 14.637L70.3393 14.5709ZM70.3393 11.3304L70.2722 11.3964L70.2723 11.3966L70.3393 11.3304ZM67.2719 11.3304L67.205 11.2643L67.2049 11.2644L67.2719 11.3304ZM45.5319 15.0649L45.4653 14.9985L45.4638 15L45.5319 15.0649ZM41.3807 15.0537L41.3144 15.1205L41.3144 15.1205L41.3807 15.0537ZM41.3807 10.8516L41.4469 10.9185L41.447 10.9184L41.3807 10.8516ZM44.6164 10.24L44.6535 10.1536L44.6534 10.1535L44.6164 10.24ZM45.499 10.8704L45.5656 10.9369L45.6264 10.876L45.5711 10.81L45.499 10.8704ZM45.0031 11.3672L44.9309 11.4276L44.997 11.5066L45.0697 11.4337L45.0031 11.3672ZM41.9151 11.3239L41.8498 11.2562L41.8497 11.2563L41.9151 11.3239ZM41.916 14.5804L41.8507 14.6481L41.8508 14.6482L41.916 14.5804ZM45.0351 14.5766L45.1016 14.6432L45.1017 14.643L45.0351 14.5766ZM45.5084 13.4334L45.6021 13.4416L45.611 13.3393H45.5084V13.4334ZM43.4582 13.4334H43.3641V13.5275H43.4582V13.4334ZM43.4582 12.7541V12.66H43.3641V12.7541H43.4582ZM46.1933 12.7541L46.2859 12.737L46.2716 12.66H46.1933V12.7541ZM47.9998 10.8223V10.7283H47.9057V10.8223H47.9998ZM50.5704 10.8223V10.9164H50.6645V10.8223H50.5704ZM47.9998 12.6119H47.9057V12.706H47.9998V12.6119ZM50.3182 12.6119H50.4123V12.5178H50.3182V12.6119ZM50.3182 13.2903V13.3844H50.4123V13.2903H50.3182ZM47.9998 13.2903V13.1962H47.9057V13.2903H47.9998ZM47.9998 15.0799H47.9057V15.174H47.9998V15.0799ZM50.5704 15.0799H50.6645V14.9858H50.5704V15.0799ZM50.5704 15.7743V15.8684H50.6645V15.7743H50.5704ZM47.2744 15.7743H47.1803V15.8684H47.2744V15.7743ZM47.2744 10.1289V10.0348H47.1803V10.1289H47.2744ZM50.5704 10.1289H50.6645V10.0348H50.5704V10.1289ZM53.6281 15.7743V15.8684H53.7222V15.7743H53.6281ZM52.9026 15.7743H52.8086V15.8684H52.9026V15.7743ZM53.6281 10.8223V10.7283H53.534V10.8223H53.6281ZM55.205 10.8223V10.9164H55.2991V10.8223H55.205ZM55.205 10.1289H55.2991V10.0348H55.205V10.1289ZM51.3257 10.1289V10.0348H51.2316V10.1289H51.3257ZM51.3257 10.8223H51.2316V10.9164H51.3257V10.8223ZM52.9026 10.8223H52.9967V10.7283H52.9026V10.8223ZM58.0127 10.1289V10.0348H57.9186V10.1289H58.0127ZM58.0127 15.7743H57.9186V15.8684H58.0127V15.7743ZM58.7381 10.1289H58.8322V10.0348H58.7381V10.1289ZM58.7381 15.7743V15.8684H58.8322V15.7743H58.7381ZM61.9543 15.7743V15.8684H62.0484V15.7743H61.9543ZM61.2289 15.7743H61.1348V15.8684H61.2289V15.7743ZM61.9543 10.8223V10.7283H61.8602V10.8223H61.9543ZM63.5313 10.8223V10.9164H63.6253V10.8223H63.5313ZM63.5313 10.1289H63.6253V10.0348H63.5313V10.1289ZM59.6519 10.1289V10.0348H59.5579V10.1289H59.6519ZM59.6519 10.8223H59.5579V10.9164H59.6519V10.8223ZM61.2289 10.8223H61.323V10.7283H61.2289V10.8223ZM72.7256 15.7743H72.6315V15.8684H72.7256V15.7743ZM72.7256 10.1289V10.0348H72.6315V10.1289H72.7256ZM73.4492 15.7743V15.8684H73.5433V15.7743H73.4492ZM73.4492 12.2572H73.5433L73.5432 12.2545L73.4492 12.2572ZM73.4181 11.1695V11.0754H73.3213L73.3241 11.1722L73.4181 11.1695ZM73.4492 11.1695L73.529 11.1198L73.5014 11.0754H73.4492V11.1695ZM76.3198 15.7743L76.24 15.8241L76.2676 15.8684H76.3198V15.7743ZM77.0772 15.7743V15.8684H77.1713V15.7743H77.0772ZM77.0772 10.1289H77.1713V10.0348H77.0772V10.1289ZM76.3518 10.1289V10.0348H76.2577V10.1289H76.3518ZM76.3518 13.4333H76.2577L76.2578 13.436L76.3518 13.4333ZM76.3829 14.521V14.6151H76.4797L76.4769 14.5183L76.3829 14.521ZM76.3518 14.521L76.272 14.5709L76.2997 14.6151H76.3518V14.521ZM73.6082 10.1289L73.688 10.0791L73.6603 10.0348H73.6082V10.1289ZM68.8056 15.9926C69.655 15.9926 70.3694 15.6989 70.943 15.1088L70.8081 14.9776C70.2715 15.5297 69.6065 15.8044 68.8056 15.8044V15.9926ZM66.6691 15.1088C67.2417 15.6979 67.9561 15.9926 68.8056 15.9926V15.8044C68.0048 15.8044 67.3398 15.5288 66.804 14.9776L66.6691 15.1088ZM65.8107 12.9497C65.8107 13.7983 66.0962 14.5203 66.6691 15.1088L66.804 14.9776C66.2667 14.4257 65.9989 13.7515 65.9989 12.9497H65.8107ZM66.6691 10.7906C66.0962 11.3791 65.8107 12.1011 65.8107 12.9497H65.9989C65.9989 12.148 66.2667 11.4737 66.804 10.9218L66.6691 10.7906ZM68.8056 9.90591C67.9561 9.90591 67.2417 10.2005 66.669 10.7907L66.8041 10.9217C67.3398 10.3696 68.0048 10.0941 68.8056 10.0941V9.90591ZM70.9393 10.7944C70.364 10.2027 69.6507 9.90591 68.8056 9.90591V10.0941C69.6014 10.0941 70.2655 10.3713 70.8043 10.9256L70.9393 10.7944ZM71.8014 12.9497C71.8014 12.1055 71.5138 11.3855 70.9393 10.7944L70.8043 10.9256C71.3438 11.4805 71.6132 12.153 71.6132 12.9497H71.8014ZM70.943 15.1088C71.515 14.5213 71.8014 13.7993 71.8014 12.9497H71.6132C71.6132 13.7524 71.3445 14.4266 70.8081 14.9776L70.943 15.1088ZM68.8056 15.1109C68.2252 15.1109 67.7386 14.9099 67.3389 14.5048L67.205 14.637C67.6408 15.0787 68.176 15.2991 68.8056 15.2991V15.1109ZM70.2723 14.5047C69.8726 14.909 69.3859 15.1109 68.8056 15.1109V15.2991C69.4353 15.2991 69.9704 15.0777 70.4062 14.637L70.2723 14.5047ZM70.8727 12.9506C70.8727 13.5854 70.6708 14.1008 70.2723 14.5048L70.4062 14.637C70.8432 14.1941 71.0609 13.6294 71.0609 12.9506H70.8727ZM70.2723 11.3966C70.6708 11.7995 70.8727 12.3159 70.8727 12.9506H71.0609C71.0609 12.2719 70.8432 11.7062 70.4062 11.2643L70.2723 11.3966ZM68.8056 10.7904C69.386 10.7904 69.8735 10.9915 70.2722 11.3964L70.4063 11.2644C69.9713 10.8226 69.4351 10.6022 68.8056 10.6022V10.7904ZM67.3388 11.3966C67.7386 10.9923 68.2253 10.7904 68.8056 10.7904V10.6022C68.1759 10.6022 67.6408 10.8236 67.205 11.2643L67.3388 11.3966ZM66.7394 12.9506C66.7394 12.3159 66.9413 11.8004 67.339 11.3964L67.2049 11.2644C66.7689 11.7072 66.5512 12.2719 66.5512 12.9506H66.7394ZM67.339 14.5049C66.9413 14.1009 66.7394 13.5854 66.7394 12.9506H66.5512C66.5512 13.6294 66.7689 14.194 67.2049 14.6369L67.339 14.5049ZM45.5985 15.1314C46.087 14.6419 46.3269 13.9886 46.3269 13.1803H46.1388C46.1388 13.949 45.912 14.5509 45.4653 14.9985L45.5985 15.1314ZM43.4582 15.9946C44.3314 15.9946 45.0496 15.7076 45.6 15.1298L45.4638 15C44.9529 15.5363 44.2861 15.8064 43.4582 15.8064V15.9946ZM41.3144 15.1205C41.9016 15.7028 42.619 15.9946 43.4582 15.9946V15.8064C42.6677 15.8064 41.9982 15.5336 41.4469 14.9868L41.3144 15.1205ZM40.4313 12.9526C40.4313 13.8121 40.7256 14.5365 41.3144 15.1205L41.4469 14.9869C40.8953 14.4398 40.6195 13.7642 40.6195 12.9526H40.4313ZM41.3145 10.7848C40.7256 11.3678 40.4313 12.0922 40.4313 12.9526H40.6195C40.6195 12.1401 40.8953 11.4645 41.4469 10.9185L41.3145 10.7848ZM43.4582 9.90978C42.619 9.90978 41.9016 10.2015 41.3144 10.7849L41.447 10.9184C41.9982 10.3708 42.6677 10.098 43.4582 10.098V9.90978ZM44.6534 10.1535C44.2747 9.99135 43.8753 9.90978 43.4582 9.90978V10.098C43.8501 10.098 44.2242 10.1745 44.5794 10.3265L44.6534 10.1535ZM45.5711 10.81C45.3399 10.5344 45.0326 10.3164 44.6535 10.1536L44.5793 10.3265C44.936 10.4798 45.2177 10.6815 45.4269 10.9309L45.5711 10.81ZM45.0697 11.4337L45.5656 10.9369L45.4324 10.804L44.9365 11.3008L45.0697 11.4337ZM43.4572 10.7914C44.0911 10.7914 44.5777 11.005 44.9309 11.4276L45.0753 11.3069C44.6814 10.8357 44.1387 10.6032 43.4572 10.6032V10.7914ZM41.9804 11.3917C42.3968 10.9906 42.8873 10.7914 43.4572 10.7914V10.6032C42.8379 10.6032 42.3008 10.8218 41.8498 11.2562L41.9804 11.3917ZM41.36 12.9517C41.36 12.3061 41.5681 11.7897 41.9804 11.3916L41.8497 11.2563C41.3965 11.6938 41.1718 12.2612 41.1718 12.9517H41.36ZM41.9814 14.5127C41.5681 14.1137 41.36 13.5972 41.36 12.9517H41.1718C41.1718 13.6422 41.3965 14.2097 41.8507 14.6481L41.9814 14.5127ZM43.4582 15.1129C42.8882 15.1129 42.3978 14.9137 41.9813 14.5126L41.8508 14.6482C42.3018 15.0825 42.8388 15.3011 43.4582 15.3011V15.1129ZM44.9686 14.5101C44.5668 14.9118 44.0653 15.1129 43.4582 15.1129V15.3011C44.1118 15.3011 44.6622 15.0826 45.1016 14.6432L44.9686 14.5101ZM45.4146 13.4253C45.3737 13.8976 45.222 14.2558 44.9685 14.5102L45.1017 14.643C45.394 14.3498 45.5584 13.9459 45.6021 13.4416L45.4146 13.4253ZM43.4582 13.5275H45.5084V13.3393H43.4582V13.5275ZM43.3641 12.7541V13.4334H43.5523V12.7541H43.3641ZM46.1933 12.66H43.4582V12.8482H46.1933V12.66ZM46.3269 13.1803C46.3269 13.0382 46.3142 12.8904 46.2859 12.737L46.1008 12.7712C46.127 12.9132 46.1388 13.0496 46.1388 13.1803H46.3269ZM47.9998 10.9164H50.5704V10.7283H47.9998V10.9164ZM48.0939 12.6119V10.8223H47.9057V12.6119H48.0939ZM50.3182 12.5178H47.9998V12.706H50.3182V12.5178ZM50.4123 13.2903V12.6119H50.2241V13.2903H50.4123ZM47.9998 13.3844H50.3182V13.1962H47.9998V13.3844ZM48.0939 15.0799V13.2903H47.9057V15.0799H48.0939ZM50.5704 14.9858H47.9998V15.174H50.5704V14.9858ZM50.6645 15.7743V15.0799H50.4763V15.7743H50.6645ZM47.2744 15.8684H50.5704V15.6802H47.2744V15.8684ZM47.1803 10.1289V15.7743H47.3685V10.1289H47.1803ZM50.5704 10.0348H47.2744V10.223H50.5704V10.0348ZM50.6645 10.8223V10.1289H50.4763V10.8223H50.6645ZM53.6281 15.6802H52.9026V15.8684H53.6281V15.6802ZM53.534 10.8223V15.7743H53.7222V10.8223H53.534ZM55.205 10.7283H53.6281V10.9164H55.205V10.7283ZM55.1109 10.1289V10.8223H55.2991V10.1289H55.1109ZM51.3257 10.223H55.205V10.0348H51.3257V10.223ZM51.4198 10.8223V10.1289H51.2316V10.8223H51.4198ZM52.9026 10.7283H51.3257V10.9164H52.9026V10.7283ZM52.9967 15.7743V10.8223H52.8086V15.7743H52.9967ZM57.9186 10.1289V15.7743H58.1068V10.1289H57.9186ZM58.7381 10.0348H58.0127V10.223H58.7381V10.0348ZM58.8322 15.7743V10.1289H58.6441V15.7743H58.8322ZM58.0127 15.8684H58.7381V15.6802H58.0127V15.8684ZM61.9543 15.6802H61.2289V15.8684H61.9543V15.6802ZM61.8602 10.8223V15.7743H62.0484V10.8223H61.8602ZM63.5313 10.7283H61.9543V10.9164H63.5313V10.7283ZM63.4372 10.1289V10.8223H63.6253V10.1289H63.4372ZM59.6519 10.223H63.5313V10.0348H59.6519V10.223ZM59.746 10.8223V10.1289H59.5579V10.8223H59.746ZM61.2289 10.7283H59.6519V10.9164H61.2289V10.7283ZM61.323 15.7743V10.8223H61.1348V15.7743H61.323ZM72.8197 15.7743V10.1289H72.6315V15.7743H72.8197ZM73.4492 15.6802H72.7256V15.8684H73.4492V15.6802ZM73.3551 12.2572V15.7743H73.5433V12.2572H73.3551ZM73.3241 11.1722L73.3551 12.2599L73.5432 12.2545L73.5122 11.1669L73.3241 11.1722ZM73.4492 11.0754H73.4181V11.2636H73.4492V11.0754ZM76.3997 15.7245L73.529 11.1198L73.3693 11.2193L76.24 15.8241L76.3997 15.7245ZM77.0772 15.6802H76.3198V15.8684H77.0772V15.6802ZM76.9832 10.1289V15.7743H77.1713V10.1289H76.9832ZM76.3518 10.223H77.0772V10.0348H76.3518V10.223ZM76.4459 13.4333V10.1289H76.2577V13.4333H76.4459ZM76.4769 14.5183L76.4459 13.4306L76.2578 13.436L76.2888 14.5237L76.4769 14.5183ZM76.3518 14.6151H76.3829V14.4269H76.3518V14.6151ZM73.5284 10.1788L76.272 14.5709L76.4316 14.4712L73.688 10.0791L73.5284 10.1788ZM72.7256 10.223H73.6082V10.0348H72.7256V10.223Z" fill="white"/>
</g>
<defs>
<linearGradient id="paint0_linear_18_9279" x1="22.1285" y1="11.7386" x2="6.33805" y2="27.5291" gradientUnits="userSpaceOnUse">
<stop stop-color="#00A0FF"/>
<stop offset="0.0066" stop-color="#00A1FF"/>
<stop offset="0.2601" stop-color="#00BEFF"/>
<stop offset="0.5122" stop-color="#00D2FF"/>
<stop offset="0.7604" stop-color="#00DFFF"/>
<stop offset="1" stop-color="#00E3FF"/>
</linearGradient>
<linearGradient id="paint1_linear_18_9279" x1="33.4521" y1="22.3636" x2="10.6853" y2="22.3636" gradientUnits="userSpaceOnUse">
<stop stop-color="#FFE000"/>
<stop offset="0.4087" stop-color="#FFBD00"/>
<stop offset="0.7754" stop-color="#FFA500"/>
<stop offset="1" stop-color="#FF9C00"/>
</linearGradient>
<linearGradient id="paint2_linear_18_9279" x1="24.9768" y1="24.5228" x2="3.56364" y2="45.936" gradientUnits="userSpaceOnUse">
<stop stop-color="#FF3A44"/>
<stop offset="1" stop-color="#C31162"/>
</linearGradient>
<linearGradient id="paint3_linear_18_9279" x1="8.48324" y1="3.70981" x2="18.0452" y2="13.2717" gradientUnits="userSpaceOnUse">
<stop stop-color="#32A071"/>
<stop offset="0.0685" stop-color="#2DA771"/>
<stop offset="0.4762" stop-color="#15CF74"/>
<stop offset="0.8009" stop-color="#06E775"/>
<stop offset="1" stop-color="#00F076"/>
</linearGradient>
<clipPath id="clip0_18_9279">
<rect width="129" height="43" fill="white"/>
</clipPath>
<clipPath id="clip1_18_9279">
<rect width="129" height="43" fill="white"/>
</clipPath>
</defs>
</svg>
