<svg width="129" height="43" fill="none" xmlns="http://www.w3.org/2000/svg"><g clip-path="url(#a)"><g clip-path="url(#b)"><rect x=".5" y=".5" width="128" height="42" rx="8.1" stroke="#fff"/></g><path d="M65.727 24.009c-2.214 0-4.017 1.682-4.017 4.002 0 2.304 1.803 4.001 4.017 4.001 2.212 0 4.016-1.697 4.016-4.001 0-2.32-1.803-4.002-4.016-4.002zm0 6.427c-1.213 0-2.26-1-2.26-2.425 0-1.44 1.047-2.426 2.26-2.426 1.212 0 2.258.985 2.258 2.426 0 1.424-1.046 2.425-2.258 2.425zm-8.764-6.427c-2.213 0-4.017 1.682-4.017 4.002 0 2.304 1.804 4.001 4.017 4.001s4.017-1.697 4.017-4.001c0-2.32-1.804-4.002-4.017-4.002zm0 6.427c-1.213 0-2.258-1-2.258-2.425 0-1.44 1.046-2.426 2.258-2.426 1.213 0 2.258.985 2.258 2.426.001 1.424-1.045 2.425-2.258 2.425zm-10.423-5.2v1.698h4.063c-.122.955-.44 1.652-.925 2.138-.591.59-1.516 1.243-3.138 1.243-2.501 0-4.456-2.017-4.456-4.517 0-2.501 1.955-4.518 4.456-4.518 1.349 0 2.334.531 3.061 1.213l1.198-1.198c-1.015-.97-2.364-1.713-4.26-1.713-3.425 0-6.305 2.789-6.305 6.215 0 3.425 2.88 6.214 6.306 6.214 1.849 0 3.244-.606 4.335-1.743 1.122-1.122 1.471-2.699 1.471-3.972a5.5 5.5 0 0 0-.091-1.061H46.54v.002zm42.63 1.319c-.333-.895-1.35-2.547-3.426-2.547-2.061 0-3.774 1.622-3.774 4.002 0 2.243 1.698 4.001 3.972 4.001 1.833 0 2.895-1.121 3.334-1.773l-1.364-.91c-.455.667-1.077 1.106-1.97 1.106-.895 0-1.531-.409-1.94-1.213l5.35-2.212-.182-.454zm-5.457 1.334c-.045-1.546 1.197-2.334 2.091-2.334.697 0 1.288.348 1.486.849l-3.577 1.485zm-4.351 3.88h1.759V20.007h-1.76V31.77zm-2.88-6.866h-.06c-.395-.47-1.152-.895-2.107-.895-2.001 0-3.835 1.759-3.835 4.017 0 2.243 1.834 3.986 3.835 3.986.955 0 1.712-.424 2.107-.91h.06v.576c0 1.531-.819 2.35-2.138 2.35-1.076 0-1.743-.774-2.016-1.425l-1.531.637c.44 1.061 1.607 2.365 3.547 2.365 2.062 0 3.805-1.213 3.805-4.169v-7.184h-1.667v.652zm-2.016 5.533c-1.212 0-2.228-1.015-2.228-2.41 0-1.41 1.016-2.441 2.228-2.441 1.198 0 2.137 1.03 2.137 2.44 0 1.395-.939 2.411-2.136 2.411zm22.94-10.429H93.2V31.77h1.754v-4.456h2.452c1.945 0 3.858-1.408 3.858-3.652s-1.912-3.654-3.858-3.654zm.046 5.67h-2.498v-4.032h2.498c1.312 0 2.057 1.086 2.057 2.016 0 .91-.745 2.015-2.057 2.015zm10.85-1.69c-1.271 0-2.587.56-3.132 1.801l1.559.651c.333-.65.953-.863 1.604-.863.908 0 1.831.545 1.846 1.513v.122c-.318-.182-.999-.455-1.831-.455-1.679 0-3.39.923-3.39 2.649 0 1.574 1.378 2.587 2.921 2.587 1.18 0 1.831-.53 2.239-1.15h.06v.909h1.695v-4.51c0-2.089-1.558-3.254-3.571-3.254zm-.213 6.446c-.575 0-1.377-.288-1.377-.998 0-.908.999-1.256 1.861-1.256.772 0 1.135.167 1.604.393a2.126 2.126 0 0 1-2.088 1.861zm9.958-6.189-2.013 5.1h-.06l-2.088-5.1h-1.891l3.132 7.127-1.786 3.965h1.831L120 24.244h-1.953zm-15.814 7.525h1.756V20.007h-1.756V31.77z" fill="#fff"/><path d="M11.436 10.636c-.274.29-.436.74-.436 1.322v20.809c0 .583.162 1.032.436 1.322l.07.068L23.161 22.5v-.275L11.505 10.567l-.07.07z" fill="url(#c)"/><path d="m27.048 26.388-3.885-3.887v-.274l3.886-3.886.088.05 4.603 2.615c1.316.747 1.316 1.97 0 2.718l-4.603 2.615-.089.05z" fill="url(#d)"/><path d="m27.136 26.338-3.973-3.975L11.435 34.09c.434.459 1.15.515 1.956.057l13.745-7.81z" fill="url(#e)"/><path d="M27.136 18.388 13.392 10.58c-.807-.458-1.522-.4-1.955.057l11.726 11.727 3.973-3.975z" fill="url(#f)"/><path opacity=".2" d="m27.049 26.251-13.657 7.76c-.764.433-1.447.405-1.886.01l-.07.07.07.068c.438.395 1.12.425 1.885-.01l13.744-7.81-.086-.088z" fill="#000"/><path opacity=".12" d="M11.436 33.953c-.274-.29-.436-.74-.436-1.322v.137c0 .583.162 1.032.436 1.322l.07-.07-.07-.067zM31.74 23.584l-4.691 2.665.087.088 4.604-2.616c.658-.373.986-.866.986-1.358-.055.445-.39.882-.986 1.22z" fill="#000"/><path opacity=".25" d="m13.39 10.717 18.35 10.425c.596.339.93.775.985 1.221 0-.492-.328-.985-.986-1.358L13.391 10.58C12.075 9.832 11 10.451 11 11.958v.138c0-1.506 1.076-2.127 2.39-1.38z" fill="#191A32"/><path fill-rule="evenodd" clip-rule="evenodd" d="M70.876 15.043c-.556.571-1.245.856-2.07.856-.826 0-1.515-.286-2.07-.856-.555-.57-.831-1.268-.831-2.093s.276-1.524.832-2.094c.554-.57 1.243-.856 2.069-.856.82 0 1.509.287 2.066.86.557.573.835 1.27.835 2.09 0 .826-.277 1.524-.831 2.093zm-3.604-.472a2.07 2.07 0 0 0 1.534.634c.605 0 1.115-.212 1.533-.634.418-.423.628-.964.628-1.62 0-.657-.21-1.198-.628-1.62a2.07 2.07 0 0 0-1.533-.635c-.605 0-1.116.212-1.534.634-.417.424-.627.964-.627 1.62 0 .657.21 1.198.627 1.62zm-21.04-1.39c0 .788-.233 1.415-.7 1.884-.53.557-1.223.835-2.074.835-.815 0-1.508-.282-2.077-.846-.57-.566-.856-1.266-.856-2.101 0-.837.285-1.537.856-2.101.569-.566 1.262-.848 2.077-.848.405 0 .791.079 1.158.236.368.158.663.368.883.63l-.496.497c-.373-.447-.888-.67-1.546-.67-.594 0-1.108.21-1.542.627-.433.418-.65.96-.65 1.628 0 .668.217 1.21.651 1.628.434.418.948.627 1.542.627.63 0 1.157-.21 1.577-.63.273-.274.431-.655.473-1.144h-2.05v-.679h2.735c.028.148.04.29.04.426zm4.338-2.359H48v1.79h2.318v.678H48v1.79h2.57v.694h-3.296V10.13h3.296v.693zm2.333 4.952h.725v-4.952h1.577v-.693h-3.88v.693h1.578v4.952zm5.11 0V10.13h.725v5.645h-.725zm3.216 0h.725v-4.952h1.577v-.693h-3.88v.693h1.578v4.952zm11.497-5.645v5.645h.723v-3.517l-.03-1.088h.03l2.87 4.605h.758V10.13h-.725v3.304l.03 1.088h-.03l-2.744-4.392h-.882z" fill="#fff"/><path d="m70.876 15.043-.068-.065.068.065zm-4.14 0 .068-.065-.067.065zm0-4.187.068.066-.067-.066zm4.136.004.067-.066-.067.066zm-3.6 3.71-.067.067.067-.066zm3.067 0 .067.067-.067-.066zm0-3.24-.067.066.067-.066zm-3.067 0-.067-.066.067.066zm-21.74 3.735-.067-.066-.001.001.068.065zm-4.151-.011-.067.066.067-.066zm0-4.202.066.066-.066-.066zm3.235-.612.038-.086-.038.086zm.883.63.067.067.06-.061-.055-.066-.072.06zm-.496.497-.072.06.066.08.073-.073-.067-.067zm-3.088-.043-.065-.068.065.068zm.001 3.256-.065.068.065-.068zm3.12-.003.066.066-.067-.066zm.472-1.144.094.009.009-.103h-.103v.094zm-2.05 0h-.094v.095h.094v-.095zm0-.679v-.094h-.094v.094h.094zm2.735 0 .093-.017-.014-.077h-.079v.094zM48 10.822v-.094h-.094v.094H48zm2.57 0v.094h.094v-.094h-.094zM48 12.612h-.094v.094H48v-.094zm2.318 0h.094v-.094h-.094v.094zm0 .678v.094h.094v-.094h-.094zm-2.318 0v-.094h-.094v.094H48zm0 1.79h-.094v.094H48v-.094zm2.57 0h.094v-.094h-.094v.094zm0 .694v.094h.094v-.094h-.094zm-3.296 0h-.094v.094h.094v-.094zm0-5.645v-.094h-.094v.094h.094zm3.296 0h.094v-.094h-.094v.094zm3.058 5.645v.094h.094v-.094h-.094zm-.725 0h-.094v.094h.094v-.094zm.725-4.952v-.094h-.094v.094h.094zm1.577 0v.094h.094v-.094h-.094zm0-.693h.094v-.094h-.094v.094zm-3.88 0v-.094h-.093v.094h.094zm0 .693h-.093v.094h.094v-.094zm1.578 0h.094v-.094h-.094v.094zm5.11-.693v-.094h-.094v.094h.094zm0 5.645h-.094v.094h.094v-.094zm.725-5.645h.094v-.094h-.094v.094zm0 5.645v.094h.094v-.094h-.094zm3.216 0v.094h.094v-.094h-.094zm-.725 0h-.094v.094h.094v-.094zm.725-4.952v-.094h-.094v.094h.094zm1.577 0v.094h.094v-.094h-.094zm0-.693h.094v-.094h-.094v.094zm-3.88 0v-.094h-.093v.094h.094zm0 .693h-.093v.094h.094v-.094zm1.578 0h.094v-.094h-.094v.094zm11.497 4.952h-.094v.094h.094v-.094zm0-5.645v-.094h-.094v.094h.094zm.723 5.645v.094h.094v-.094h-.094zm0-3.517h.094v-.002l-.094.002zm-.03-1.088v-.094h-.098l.003.097.094-.003zm.03 0 .08-.05-.028-.044h-.052v.095zm2.87 4.605-.079.05.028.044h.052v-.094zm.758 0v.094h.094v-.094h-.094zm0-5.645h.094v-.094h-.094v.094zm-.725 0v-.094h-.094v.094h.094zm0 3.304h-.094v.003l.094-.003zm.03 1.088v.094h.098l-.003-.097-.094.003zm-.03 0-.08.05.028.044h.052v-.094zm-2.744-4.392.08-.05-.028-.044h-.052v.094zm-4.802 5.864c.849 0 1.563-.294 2.137-.884l-.135-.131c-.537.552-1.202.826-2.002.826v.189zm-2.137-.884c.573.589 1.287.884 2.137.884v-.189c-.801 0-1.466-.275-2.002-.826l-.135.13zm-.858-2.16c0 .85.285 1.571.858 2.16l.135-.131c-.537-.552-.805-1.226-.805-2.028h-.188zm.858-2.158c-.573.588-.858 1.31-.858 2.159h.188c0-.802.268-1.476.805-2.028l-.135-.131zm2.137-.885c-.85 0-1.564.294-2.137.885l.135.13c.536-.551 1.2-.827 2.002-.827v-.188zm2.133.888c-.575-.591-1.288-.888-2.133-.888v.188c.795 0 1.46.277 1.998.832l.135-.132zm.862 2.156c0-.845-.287-1.564-.862-2.156l-.135.132c.54.554.81 1.227.81 2.024h.187zm-.858 2.159c.572-.588.858-1.31.858-2.16h-.188c0 .803-.269 1.478-.805 2.029l.135.13zm-2.137.002c-.58 0-1.067-.201-1.467-.606l-.134.132c.436.442.971.662 1.6.662v-.188zm1.466-.606a1.98 1.98 0 0 1-1.466.606v.188c.63 0 1.164-.221 1.6-.662l-.134-.132zm.6-1.554c0 .634-.201 1.15-.6 1.554l.134.132c.437-.443.655-1.008.655-1.686h-.188zm-.6-1.554c.399.402.6.919.6 1.554h.189c0-.68-.218-1.245-.655-1.687l-.134.133zm-1.466-.607c.58 0 1.068.202 1.466.606l.134-.132a2.163 2.163 0 0 0-1.6-.662v.188zm-1.467.607a1.98 1.98 0 0 1 1.467-.607v-.188c-.63 0-1.165.222-1.601.662l.134.133zm-.6 1.554c0-.635.202-1.15.6-1.555l-.134-.132c-.436.443-.654 1.008-.654 1.687h.188zm.6 1.554c-.398-.404-.6-.92-.6-1.554h-.188c0 .678.218 1.243.654 1.686l.134-.132zm-21.74.626c.488-.49.728-1.142.728-1.95h-.188c0 .768-.227 1.37-.674 1.818l.133.132zm-2.14.864c.872 0 1.59-.287 2.141-.865l-.136-.13c-.511.536-1.178.806-2.006.806v.189zm-2.145-.874c.588.582 1.305.874 2.144.874v-.189c-.79 0-1.46-.272-2.011-.82l-.133.134zm-.883-2.168c0 .86.295 1.584.883 2.168l.133-.134c-.552-.547-.828-1.223-.828-2.034h-.188zm.884-2.168c-.59.583-.884 1.307-.884 2.168h.189c0-.813.275-1.489.827-2.034l-.133-.134zm2.143-.875c-.839 0-1.556.291-2.144.875l.133.133c.551-.547 1.22-.82 2.011-.82V9.91zm1.195.243a3.009 3.009 0 0 0-1.195-.243v.188c.392 0 .766.076 1.121.228l.074-.173zm.918.657a2.417 2.417 0 0 0-.917-.656l-.075.172c.357.154.639.355.848.605l.144-.121zm-.501.624.496-.497-.134-.133-.495.497.133.133zm-1.613-.643c.634 0 1.12.214 1.474.637l.144-.121c-.394-.471-.936-.704-1.618-.704v.188zm-1.477.6c.417-.4.907-.6 1.477-.6v-.188c-.62 0-1.156.219-1.607.653l.13.136zm-.62 1.56c0-.645.208-1.161.62-1.56l-.13-.135c-.453.438-.678 1.005-.678 1.696h.188zm.621 1.562c-.413-.4-.621-.916-.621-1.561h-.188c0 .69.225 1.258.679 1.696l.13-.135zm1.477.6c-.57 0-1.06-.2-1.477-.6l-.13.135c.45.434.988.653 1.607.653v-.188zm1.51-.603c-.401.402-.903.603-1.51.603v.188c.654 0 1.204-.218 1.644-.658l-.133-.133zm.447-1.085c-.041.473-.193.83-.447 1.085l.134.133c.292-.293.456-.697.5-1.201l-.187-.017zm-1.957.102h2.05v-.188h-2.05v.188zm-.094-.773v.68h.188v-.68h-.188zm2.83-.094h-2.736v.188h2.735v-.188zm.133.52c0-.142-.013-.29-.041-.443l-.185.034c.026.142.038.279.038.41h.188zM48 10.916h2.57v-.188H48v.188zm.094 1.696v-1.79h-.188v1.79h.188zm2.224-.094H48v.188h2.318v-.188zm.094.772v-.678h-.188v.678h.188zM48 13.384h2.318v-.188H48v.188zm.094 1.696v-1.79h-.188v1.79h.188zm2.476-.094H48v.188h2.57v-.188zm.094.788v-.694h-.188v.694h.188zm-3.39.094h3.296v-.188h-3.296v.188zm-.094-5.74v5.646h.188V10.13h-.188zm3.39-.093h-3.296v.188h3.296v-.188zm.094.787v-.693h-.188v.693h.188zm2.964 4.858h-.725v.188h.725v-.188zm-.094-4.858v4.952h.188v-4.952h-.188zm1.671-.094h-1.577v.188h1.577v-.188zm-.094-.6v.694h.188v-.693h-.188zm-3.785.095h3.879v-.188h-3.88v.188zm.094.6v-.694h-.188v.693h.188zm1.483-.095h-1.577v.188h1.577v-.188zm.094 5.046v-4.952h-.188v4.952h.188zm4.922-5.645v5.645h.188V10.13h-.188zm.82-.094h-.726v.188h.725v-.188zm.093 5.74v-5.646h-.188v5.645h.188zm-.82.093h.726v-.188h-.725v.188zm3.942-.188h-.725v.188h.725v-.188zm-.094-4.858v4.952h.188v-4.952h-.188zm1.671-.094h-1.577v.188h1.577v-.188zm-.094-.6v.694h.188v-.693h-.188zm-3.785.095h3.88v-.188h-3.88v.188zm.094.6v-.694h-.188v.693h.188zm1.483-.095h-1.577v.188h1.577v-.188zm.094 5.046v-4.952h-.188v4.952h.188zm11.497 0V10.13h-.188v5.645h.188zm.63-.094h-.724v.188h.723v-.188zm-.095-3.423v3.517h.188v-3.517h-.188zm-.03-1.085.03 1.088.188-.005-.03-1.088-.189.005zm.124-.097h-.03v.189h.03v-.189zm2.95 4.65-2.87-4.605-.16.1 2.871 4.604.16-.1zm.678-.045h-.757v.188h.757v-.188zm-.094-5.551v5.645h.188V10.13h-.188zm-.631.094h.725v-.188h-.725v.188zm.094 3.21V10.13h-.188v3.304h.188zm.03 1.085-.03-1.087-.188.005.03 1.088.189-.006zm-.124.097h.03v-.188h-.03v.188zm-2.824-4.436 2.744 4.392.16-.1-2.744-4.392-.16.1zm-.802.044h.882v-.188h-.882v.188z" fill="#fff"/></g><defs><linearGradient id="c" x1="22.128" y1="11.739" x2="6.338" y2="27.529" gradientUnits="userSpaceOnUse"><stop stop-color="#00A0FF"/><stop offset=".007" stop-color="#00A1FF"/><stop offset=".26" stop-color="#00BEFF"/><stop offset=".512" stop-color="#00D2FF"/><stop offset=".76" stop-color="#00DFFF"/><stop offset="1" stop-color="#00E3FF"/></linearGradient><linearGradient id="d" x1="33.452" y1="22.364" x2="10.685" y2="22.364" gradientUnits="userSpaceOnUse"><stop stop-color="#FFE000"/><stop offset=".409" stop-color="#FFBD00"/><stop offset=".775" stop-color="orange"/><stop offset="1" stop-color="#FF9C00"/></linearGradient><linearGradient id="e" x1="24.977" y1="24.523" x2="3.564" y2="45.936" gradientUnits="userSpaceOnUse"><stop stop-color="#FF3A44"/><stop offset="1" stop-color="#C31162"/></linearGradient><linearGradient id="f" x1="8.483" y1="3.71" x2="18.045" y2="13.272" gradientUnits="userSpaceOnUse"><stop stop-color="#32A071"/><stop offset=".069" stop-color="#2DA771"/><stop offset=".476" stop-color="#15CF74"/><stop offset=".801" stop-color="#06E775"/><stop offset="1" stop-color="#00F076"/></linearGradient><clipPath id="a"><path fill="#fff" d="M0 0h129v43H0z"/></clipPath><clipPath id="b"><path fill="#fff" d="M0 0h129v43H0z"/></clipPath></defs></svg>