<svg width="24" height="24" viewBox="0 0 24 24" fill="none" xmlns="http://www.w3.org/2000/svg">
<g clip-path="url(#clip0_23_9359)">
<path fill-rule="evenodd" clip-rule="evenodd" d="M22.8 4.343C23.518 5.12 23.753 6.884 23.753 6.884C23.753 6.884 23.993 8.955 23.993 11.027V12.967C23.993 15.039 23.753 17.11 23.753 17.11C23.753 17.11 23.518 18.874 22.799 19.65C21.976 20.568 21.064 20.663 20.549 20.717C20.493 20.723 20.442 20.727 20.395 20.734C17.038 20.991 11.996 21 11.996 21C11.996 21 5.758 20.94 3.838 20.743C3.748 20.725 3.638 20.711 3.513 20.695C2.905 20.616 1.951 20.494 1.193 19.648C0.474 18.873 0.24 17.11 0.24 17.11C0.24 17.11 0 15.039 0 12.967V11.026C0 8.955 0.24 6.884 0.24 6.884C0.24 6.884 0.475 5.12 1.193 4.342C2.02 3.421 2.935 3.328 3.449 3.276C3.503 3.271 3.552 3.266 3.597 3.26C6.954 3 11.99 3 11.99 3H12.001C12.001 3 17.038 3 20.395 3.26C20.44 3.266 20.49 3.27 20.544 3.276C21.058 3.328 21.975 3.421 22.8 4.343ZM16.5 12L9 16.5V7.5L16.5 12Z" fill="white"/>
</g>
<defs>
<clipPath id="clip0_23_9359">
<rect width="24" height="24" fill="white"/>
</clipPath>
</defs>
</svg>
