<svg width="24" height="24" viewBox="0 0 24 24" fill="none" xmlns="http://www.w3.org/2000/svg">
<g clip-path="url(#clip0_23_9345)">
<path d="M6.76002 20.4301H3.26002V7.59012H6.76002V20.4301ZM5.01002 6.11012C4.59772 6.12196 4.19136 6.00976 3.84355 5.78805C3.49574 5.56633 3.22249 5.24531 3.05919 4.86654C2.89589 4.48777 2.85006 4.06871 2.92762 3.6636C3.00518 3.25849 3.20257 2.88599 3.49423 2.59433C3.78589 2.30267 4.15839 2.10528 4.5635 2.02772C4.96861 1.95015 5.38768 1.99599 5.76644 2.15929C6.14521 2.32259 6.46623 2.59584 6.68795 2.94365C6.90967 3.29146 7.02186 3.69782 7.01002 4.11012C7.01008 4.63539 6.80349 5.13961 6.43488 5.51383C6.06627 5.88805 5.56524 6.10224 5.04002 6.11012H5.01002ZM20.76 20.4301H17.26V13.8901C17.26 9.96012 12.59 10.2601 12.59 13.8901V20.4301H9.09002V7.59012H12.59V9.65012C14.22 6.65012 20.76 6.41012 20.76 12.5401V20.4301Z" fill="white"/>
</g>
<defs>
<clipPath id="clip0_23_9345">
<rect width="24" height="24" fill="white"/>
</clipPath>
</defs>
</svg>
