<svg width="24" height="24" viewBox="0 0 24 24" fill="none" xmlns="http://www.w3.org/2000/svg">
<path fill-rule="evenodd" clip-rule="evenodd" d="M1.99988 11.7003C1.99988 6.1268 6.36614 2 12 2C17.6339 2 22.0001 6.1268 22.0001 11.7003C22.0001 17.2738 17.6339 21.4007 12 21.4007C10.9879 21.4007 10.0161 21.2678 9.10461 21.0164C8.92754 20.9681 8.74039 20.9821 8.5714 21.0566L6.58747 21.9318C6.06832 22.1592 5.48281 21.791 5.46472 21.2236L5.41039 19.4449C5.40234 19.2256 5.30374 19.0223 5.14077 18.8755C3.19505 17.135 1.99988 14.6158 1.99988 11.7003ZM8.93357 9.87741L5.99592 14.5374C5.71221 14.9841 6.26354 15.4892 6.68405 15.1692L9.84104 12.7728C10.0543 12.6119 10.3481 12.6099 10.5634 12.7708L12.8994 14.5234C13.5996 15.0485 14.6016 14.8634 15.0685 14.123L18.0041 9.46495C18.2878 9.01826 17.7365 8.51322 17.316 8.83314L14.161 11.2275C13.9477 11.3885 13.654 11.3905 13.4387 11.2295L11.1026 9.47702C10.4024 8.95185 9.40038 9.13697 8.93357 9.87741Z" fill="white"/>
</svg>
