<?xml version="1.0" encoding="utf-8"?>
<!-- Generator: Adobe Illustrator 26.1.0, SVG Export Plug-In . SVG Version: 6.00 Build 0)  -->
<svg version="1.1" id="Layer_1" xmlns="http://www.w3.org/2000/svg" xmlns:xlink="http://www.w3.org/1999/xlink" x="0px" y="0px"
	 viewBox="0 0 27 30.6" style="enable-background:new 0 0 27 30.6;" xml:space="preserve">
<style type="text/css">
	.st0{fill:#FFFFFF;}
	.st1{fill:none;stroke:#FFFFFF;stroke-miterlimit:10;}
</style>
<path class="st0" d="M19.4,22.4h-8.7V11.3h8.7 M19.4,9.8h-8.7c-0.4,0-0.8,0.2-1.1,0.5c-0.3,0.3-0.5,0.7-0.5,1.1v11.1
	c0,0.4,0.2,0.8,0.5,1.1c0.3,0.3,0.7,0.5,1.1,0.5h8.7c0.4,0,0.8-0.2,1.1-0.5c0.3-0.3,0.5-0.7,0.5-1.1V11.3c0-0.4-0.2-0.8-0.5-1.1
	C20.2,9.9,19.8,9.8,19.4,9.8z M17.1,6.6H7.6c-0.4,0-0.8,0.2-1.1,0.5C6.2,7.4,6,7.8,6,8.2v11.1h1.6V8.2h9.5V6.6z"/>
<path class="st1" d="M7,0.5h13c3.6,0,6.5,2.9,6.5,6.5v16.6c0,3.6-2.9,6.5-6.5,6.5H7c-3.6,0-6.5-2.9-6.5-6.5V7C0.5,3.4,3.4,0.5,7,0.5
	z"/>
</svg>
