<svg width="250" height="41" viewBox="0 0 250 41" fill="none" xmlns="http://www.w3.org/2000/svg">
<path fill-rule="evenodd" clip-rule="evenodd" d="M80.5994 12.692C78.6137 10.6381 76.2523 9.61108 73.5153 9.61108C70.4562 9.61108 68.1082 10.7448 66.4714 13.0121V10.1312H62.1243V38.1399H66.4714V27.2965C68.1351 29.5372 70.483 30.6576 73.5153 30.6576C76.2792 30.6576 78.6405 29.6439 80.5994 27.6166C82.5583 25.5894 83.5377 23.0952 83.5377 20.1343C83.5377 17.2001 82.5583 14.7193 80.5994 12.692ZM72.831 26.5363C71.0063 26.5363 69.4902 25.9361 68.2826 24.7358C67.0751 23.482 66.4714 21.9482 66.4714 20.1343C66.4714 18.2938 67.0751 16.7733 68.2826 15.5729C69.4902 14.3459 71.0063 13.7324 72.831 13.7324C74.6557 13.7324 76.1718 14.3459 77.3793 15.5729C78.5869 16.7733 79.1906 18.2938 79.1906 20.1343C79.1906 21.9749 78.5869 23.5087 77.3793 24.7358C76.1718 25.9361 74.6557 26.5363 72.831 26.5363ZM102.612 10.1312V12.9721C100.975 10.7314 98.6271 9.61108 95.568 9.61108C92.8041 9.61108 90.4427 10.6247 88.4839 12.652C86.525 14.6793 85.5455 17.1734 85.5455 20.1343C85.5455 23.0952 86.525 25.5894 88.4839 27.6166C90.4427 29.6439 92.8041 30.6576 95.568 30.6576C98.6271 30.6576 100.975 29.5239 102.612 27.2565V30.1374H106.959V10.1312H102.612ZM96.2523 26.5363C94.4276 26.5363 92.9114 25.9361 91.7039 24.7358C90.4964 23.482 89.8926 21.9482 89.8926 20.1343C89.8926 18.2938 90.4964 16.7733 91.7039 15.5729C92.9114 14.3459 94.4276 13.7324 96.2523 13.7324C98.077 13.7324 99.5931 14.3459 100.801 15.5729C102.008 16.7733 102.612 18.2938 102.612 20.1343C102.612 21.9749 102.008 23.5087 100.801 24.7358C99.5931 25.9361 98.077 26.5363 96.2523 26.5363ZM134.013 15.6529C134.013 16.2665 134.335 16.7733 134.979 17.1734C135.623 17.5469 136.562 17.907 137.797 18.2538C138.736 18.4672 139.554 18.6939 140.252 18.934C140.95 19.174 141.688 19.5341 142.466 20.0143C143.244 20.4678 143.834 21.0813 144.237 21.8549C144.666 22.6018 144.868 23.482 144.841 24.4957C144.841 26.4163 144.089 27.9234 142.587 29.0171C141.084 30.1107 139.219 30.6576 136.992 30.6576C135.006 30.6576 133.302 30.2441 131.88 29.4172C130.458 28.5903 129.425 27.4433 128.781 25.9761L132.524 23.8155C133.195 25.7361 134.684 26.6964 136.992 26.6964C139.273 26.6964 140.413 25.9495 140.413 24.4557C140.413 23.362 139.139 22.5084 136.589 21.8949C135.623 21.6548 134.805 21.4147 134.134 21.1747C133.49 20.9346 132.765 20.5878 131.96 20.1343C131.182 19.6809 130.578 19.0807 130.149 18.3338C129.747 17.5869 129.559 16.7199 129.586 15.733C129.586 13.8924 130.283 12.4119 131.679 11.2916C133.101 10.1713 134.859 9.61108 136.952 9.61108C138.615 9.61108 140.091 9.98453 141.379 10.7314C142.694 11.4517 143.7 12.4653 144.398 13.7724L140.735 15.813C140.064 14.2925 138.803 13.5323 136.952 13.5323C136.093 13.5323 135.382 13.719 134.818 14.0925C134.282 14.4659 134.013 14.9861 134.013 15.6529ZM150.767 21.9749H166.787C166.895 21.308 166.948 20.7078 166.948 20.1743C166.948 17.2401 165.996 14.746 164.09 12.692C162.185 10.6381 159.77 9.61108 156.845 9.61108C153.706 9.61108 151.156 10.6247 149.198 12.652C147.212 14.6793 146.219 17.1734 146.219 20.1343C146.219 23.1753 147.225 25.6961 149.238 27.6967C151.277 29.6706 153.92 30.6576 157.167 30.6576C161.085 30.6576 164.023 29.2038 165.982 26.2962L162.4 24.2156C161.219 25.8694 159.488 26.6964 157.207 26.6964C155.517 26.6964 154.095 26.2829 152.941 25.456C151.814 24.6291 151.089 23.4687 150.767 21.9749ZM162.561 18.4538H150.727C151.022 16.9333 151.707 15.733 152.78 14.8527C153.853 13.9724 155.195 13.5323 156.805 13.5323C158.281 13.5323 159.529 13.9591 160.548 14.8127C161.595 15.6663 162.266 16.88 162.561 18.4538ZM180.554 9.61108C182.889 9.61108 184.754 10.358 186.149 11.8518C187.571 13.3189 188.282 15.3195 188.282 17.8536V30.1374H183.935V18.2938C183.935 16.8 183.533 15.6529 182.728 14.8527C181.923 14.0525 180.823 13.6523 179.427 13.6523C177.844 13.6523 176.596 14.1458 175.684 15.1328C174.772 16.0931 174.315 17.5202 174.315 19.4141V30.1374H169.968V10.1312H174.315V12.692C175.657 10.6381 177.737 9.61108 180.554 9.61108ZM208.178 10.1312V13.0922C206.541 10.7714 204.207 9.61108 201.174 9.61108C198.33 9.61108 195.928 10.6247 193.969 12.652C192.011 14.626 191.031 17.0534 191.031 19.9343C191.031 22.7885 192.011 25.2292 193.969 27.2565C195.955 29.2572 198.357 30.2575 201.174 30.2575C204.207 30.2575 206.541 29.0971 208.178 26.7764V29.2171C208.178 30.951 207.641 32.2981 206.568 33.2584C205.521 34.2454 204.059 34.7388 202.181 34.7388C199.309 34.7388 197.35 33.7119 196.304 31.6579L192.561 33.8186C194.278 37.0462 197.458 38.6601 202.1 38.6601C204.998 38.6601 207.44 37.8465 209.426 36.2193C211.438 34.5921 212.445 32.2581 212.445 29.2171V10.1312H208.178ZM201.778 26.2162C199.953 26.2162 198.424 25.616 197.189 24.4157C195.982 23.2153 195.378 21.7215 195.378 19.9343C195.378 18.1471 195.982 16.6533 197.189 15.4529C198.424 14.2525 199.953 13.6523 201.778 13.6523C203.603 13.6523 205.119 14.2525 206.326 15.4529C207.561 16.6533 208.178 18.1471 208.178 19.9343C208.178 21.7215 207.561 23.2153 206.326 24.4157C205.119 25.616 203.603 26.2162 201.778 26.2162ZM236.148 21.9749H220.128C220.45 23.4687 221.174 24.6291 222.301 25.456C223.455 26.2829 224.877 26.6964 226.568 26.6964C228.849 26.6964 230.58 25.8694 231.76 24.2156L235.343 26.2962C233.384 29.2038 230.445 30.6576 226.528 30.6576C223.281 30.6576 220.638 29.6706 218.598 27.6967C216.586 25.6961 215.579 23.1753 215.579 20.1343C215.579 17.1734 216.572 14.6793 218.558 12.652C220.517 10.6247 223.066 9.61108 226.206 9.61108C229.131 9.61108 231.546 10.6381 233.451 12.692C235.356 14.746 236.309 17.2401 236.309 20.1743C236.309 20.7078 236.255 21.308 236.148 21.9749ZM220.087 18.4538H231.921C231.626 16.88 230.955 15.6663 229.909 14.8127C228.889 13.9591 227.641 13.5323 226.165 13.5323C224.555 13.5323 223.214 13.9724 222.14 14.8527C221.067 15.733 220.383 16.9333 220.087 18.4538ZM243.676 13.4923V10.1312H239.329V30.1374H243.676V20.0543C243.676 18.0003 244.293 16.5332 245.527 15.6529C246.788 14.746 248.237 14.3459 249.874 14.4526V9.77113C246.842 9.77113 244.776 11.0115 243.676 13.4923ZM119.639 24.8034L124.79 10.2789H129.418L122.045 29.9788H122.041L118.907 38.3262H114.428L117.389 29.9788H117.398L117.425 29.9249L108.894 10.2789H113.642L119.639 24.8034Z" fill="white"/>
<path fill-rule="evenodd" clip-rule="evenodd" d="M34.8455 6.21191C25.1651 6.21191 17.2974 13.9995 17.2974 23.6059C17.2974 27.4028 18.5265 30.9155 20.6108 33.7756L13.7877 40.9999H33.8426V40.9719C34.1746 40.9904 34.509 40.9999 34.8455 40.9999C44.526 40.9999 52.3936 33.2123 52.3936 23.6059C52.3936 13.9995 44.526 6.21191 34.8455 6.21191Z" fill="#FFDD00"/>
<path fill-rule="evenodd" clip-rule="evenodd" d="M16.4666 0.000596435C23.3893 0.0472969 33.8313 2.87744 33.8313 22.8769L16.2892 11.587H16.1672L12.5301 11.587C5.6099 11.587 0 6.3852 0 9.45071e-07L16.1672 0H16.2892H16.4666V0.000596435Z" fill="#6E46F0"/>
<path fill-rule="evenodd" clip-rule="evenodd" d="M21.5562 11.5898C28.36 11.7229 33.8312 16.8584 33.8312 23.1741H21.5562L21.2853 23.1741L20.0592 23.1741H20.0307C13.1017 23.1741 7.48474 17.9865 7.48474 11.5872L20.0592 11.5872H21.2853H21.5562V11.5898Z" fill="#BA46F0"/>
<ellipse cx="42.3668" cy="19.8786" rx="3.76031" ry="3.72728" fill="#0A0A1E"/>
<path fill-rule="evenodd" clip-rule="evenodd" d="M80.6402 12.6806C78.6535 10.6256 76.2909 9.59814 73.5525 9.59814C70.4919 9.59814 68.1427 10.7324 66.505 13.0009V10.1186H62.1558V38.1413H66.505V27.2925C68.1696 29.5343 70.5187 30.6552 73.5525 30.6552C76.3177 30.6552 78.6803 29.641 80.6402 27.6127C82.6 25.5844 83.58 23.0891 83.58 20.1267C83.58 17.191 82.6 14.709 80.6402 12.6806ZM72.8679 26.5319C71.0422 26.5319 69.5254 25.9314 68.3172 24.7304C67.1091 23.4761 66.505 21.9415 66.505 20.1267C66.505 18.2852 67.1091 16.7639 68.3172 15.563C69.5254 14.3353 71.0422 13.7215 72.8679 13.7215C74.6935 13.7215 76.2104 14.3353 77.4185 15.563C78.6266 16.7639 79.2307 18.2852 79.2307 20.1267C79.2307 21.9682 78.6266 23.5027 77.4185 24.7304C76.2104 25.9314 74.6935 26.5319 72.8679 26.5319ZM102.664 10.1186V12.9609C101.026 10.7191 98.6769 9.59814 95.6163 9.59814C92.851 9.59814 90.4884 10.6123 88.5286 12.6406C86.5687 14.6689 85.5888 17.1643 85.5888 20.1267C85.5888 23.0891 86.5687 25.5844 88.5286 27.6127C90.4884 29.641 92.851 30.6552 95.6163 30.6552C98.6769 30.6552 101.026 29.5209 102.664 27.2524V30.1348H107.013V10.1186H102.664ZM96.3009 26.5319C94.4753 26.5319 92.9584 25.9314 91.7503 24.7304C90.5421 23.4761 89.9381 21.9415 89.9381 20.1267C89.9381 18.2852 90.5421 16.7639 91.7503 15.563C92.9584 14.3353 94.4753 13.7215 96.3009 13.7215C98.1265 13.7215 99.6434 14.3353 100.852 15.563C102.06 16.7639 102.664 18.2852 102.664 20.1267C102.664 21.9682 102.06 23.5027 100.852 24.7304C99.6434 25.9314 98.1265 26.5319 96.3009 26.5319ZM134.081 15.643C134.081 16.2569 134.403 16.7639 135.047 17.1643C135.692 17.5379 136.631 17.8982 137.866 18.2451C138.806 18.4587 139.625 18.6855 140.323 18.9257C141.021 19.1659 141.759 19.5262 142.538 20.0066C143.316 20.4603 143.907 21.0741 144.31 21.8481C144.739 22.5953 144.941 23.4761 144.914 24.4902C144.914 26.4118 144.162 27.9197 142.659 29.0139C141.155 30.1081 139.289 30.6552 137.061 30.6552C135.074 30.6552 133.369 30.2415 131.946 29.4142C130.524 28.5869 129.49 27.4393 128.846 25.9714L132.591 23.8097C133.262 25.7312 134.752 26.692 137.061 26.692C139.343 26.692 140.484 25.9447 140.484 24.4502C140.484 23.356 139.209 22.5019 136.658 21.8881C135.692 21.6479 134.873 21.4077 134.202 21.1675C133.557 20.9273 132.832 20.5804 132.027 20.1267C131.248 19.673 130.644 19.0725 130.215 18.3252C129.812 17.5779 129.624 16.7106 129.651 15.7231C129.651 13.8816 130.349 12.4004 131.745 11.2795C133.168 10.1586 134.926 9.59814 137.021 9.59814C138.685 9.59814 140.162 9.97178 141.45 10.7191C142.766 11.4396 143.773 12.4538 144.471 13.7615L140.806 15.8032C140.135 14.2819 138.873 13.5213 137.021 13.5213C136.161 13.5213 135.45 13.7081 134.886 14.0818C134.349 14.4554 134.081 14.9758 134.081 15.643ZM150.843 21.9682H166.871C166.979 21.301 167.032 20.7005 167.032 20.1667C167.032 17.231 166.079 14.7356 164.173 12.6806C162.267 10.6256 159.851 9.59814 156.924 9.59814C153.783 9.59814 151.233 10.6123 149.273 12.6406C147.286 14.6689 146.293 17.1643 146.293 20.1267C146.293 23.1691 147.299 25.6912 149.313 27.6928C151.353 29.6677 153.998 30.6552 157.246 30.6552C161.166 30.6552 164.106 29.2007 166.066 26.2917L162.482 24.21C161.3 25.8647 159.569 26.692 157.287 26.692C155.595 26.692 154.172 26.2783 153.018 25.451C151.89 24.6236 151.165 23.4627 150.843 21.9682ZM162.643 18.4453H150.803C151.098 16.9241 151.783 15.7231 152.857 14.8424C153.931 13.9617 155.273 13.5213 156.884 13.5213C158.361 13.5213 159.609 13.9483 160.629 14.8024C161.676 15.6564 162.347 16.8707 162.643 18.4453ZM180.645 9.59814C182.981 9.59814 184.847 10.3454 186.243 11.84C187.666 13.3078 188.377 15.3094 188.377 17.8448V30.1348H184.028V18.2852C184.028 16.7906 183.625 15.643 182.82 14.8424C182.014 14.0417 180.914 13.6414 179.518 13.6414C177.934 13.6414 176.685 14.1352 175.772 15.1226C174.86 16.0834 174.403 17.5112 174.403 19.4061V30.1348H170.054V10.1186H174.403V12.6806C175.745 10.6256 177.826 9.59814 180.645 9.59814ZM208.283 10.1186V13.081C206.645 10.7591 204.309 9.59814 201.276 9.59814C198.43 9.59814 196.027 10.6123 194.067 12.6406C192.107 14.6155 191.127 17.0442 191.127 19.9265C191.127 22.7822 192.107 25.2241 194.067 27.2524C196.054 29.2541 198.457 30.2549 201.276 30.2549C204.309 30.2549 206.645 29.0939 208.283 26.7721V29.214C208.283 30.9488 207.746 32.2965 206.672 33.2573C205.625 34.2448 204.162 34.7385 202.282 34.7385C199.41 34.7385 197.45 33.711 196.403 31.656L192.658 33.8178C194.376 37.047 197.557 38.6617 202.202 38.6617C205.101 38.6617 207.544 37.8477 209.531 36.2197C211.545 34.5917 212.551 32.2565 212.551 29.214V10.1186H208.283ZM201.88 26.2116C200.054 26.2116 198.524 25.6111 197.289 24.4101C196.081 23.2092 195.477 21.7146 195.477 19.9265C195.477 18.1384 196.081 16.6438 197.289 15.4429C198.524 14.2419 200.054 13.6414 201.88 13.6414C203.705 13.6414 205.222 14.2419 206.43 15.4429C207.665 16.6438 208.283 18.1384 208.283 19.9265C208.283 21.7146 207.665 23.2092 206.43 24.4101C205.222 25.6111 203.705 26.2116 201.88 26.2116ZM236.266 21.9682H220.238C220.561 23.4627 221.286 24.6236 222.413 25.451C223.568 26.2783 224.99 26.692 226.682 26.692C228.964 26.692 230.696 25.8647 231.877 24.21L235.461 26.2917C233.501 29.2007 230.561 30.6552 226.642 30.6552C223.393 30.6552 220.749 29.6677 218.708 27.6928C216.695 25.6912 215.688 23.1691 215.688 20.1267C215.688 17.1643 216.681 14.6689 218.668 12.6406C220.628 10.6123 223.178 9.59814 226.319 9.59814C229.246 9.59814 231.662 10.6256 233.568 12.6806C235.474 14.7356 236.427 17.231 236.427 20.1667C236.427 20.7005 236.374 21.301 236.266 21.9682ZM220.198 18.4453H232.038C231.743 16.8707 231.071 15.6564 230.024 14.8024C229.004 13.9483 227.756 13.5213 226.279 13.5213C224.668 13.5213 223.326 13.9617 222.252 14.8424C221.178 15.7231 220.494 16.9241 220.198 18.4453ZM243.798 13.4813V10.1186H239.449V30.1348H243.798V20.0466C243.798 17.9916 244.416 16.5238 245.651 15.643C246.913 14.7356 248.362 14.3353 250 14.4421V9.75827C246.966 9.75827 244.899 10.9993 243.798 13.4813ZM119.699 24.798L124.853 10.2663H129.483L122.107 29.976H122.102L118.967 38.3276H114.486L117.448 29.976H117.458L117.485 29.9222L108.949 10.2663H113.7L119.699 24.798Z" fill="white"/>
</svg>
