<svg width="250" height="41" fill="none" xmlns="http://www.w3.org/2000/svg"><path fill-rule="evenodd" clip-rule="evenodd" d="M80.6 12.692c-1.986-2.054-4.348-3.08-7.085-3.08-3.059 0-5.407 1.133-7.044 3.4v-2.88h-4.347V38.14h4.347V27.297c1.664 2.24 4.012 3.36 7.044 3.36 2.764 0 5.126-1.013 7.084-3.04 1.96-2.028 2.939-4.522 2.939-7.483 0-2.934-.98-5.415-2.939-7.442zM72.83 26.536c-1.825 0-3.34-.6-4.548-1.8-1.208-1.254-1.812-2.788-1.812-4.602 0-1.84.604-3.36 1.812-4.561 1.207-1.227 2.723-1.84 4.548-1.84 1.825 0 3.34.613 4.548 1.84 1.208 1.2 1.812 2.72 1.812 4.561 0 1.84-.604 3.375-1.812 4.602-1.207 1.2-2.723 1.8-4.548 1.8zm29.781-16.405v2.841c-1.637-2.24-3.985-3.36-7.044-3.36-2.764 0-5.125 1.013-7.084 3.04-1.959 2.027-2.938 4.521-2.938 7.482 0 2.961.979 5.455 2.938 7.483 1.959 2.027 4.32 3.04 7.084 3.04 3.06 0 5.407-1.133 7.044-3.4v2.88h4.347V10.131h-4.347zm-6.36 16.405c-1.824 0-3.34-.6-4.548-1.8-1.208-1.254-1.811-2.788-1.811-4.602 0-1.84.603-3.36 1.81-4.561 1.208-1.227 2.725-1.84 4.55-1.84 1.824 0 3.34.613 4.548 1.84 1.207 1.2 1.811 2.72 1.811 4.561 0 1.84-.604 3.375-1.811 4.602-1.208 1.2-2.724 1.8-4.549 1.8zm37.761-10.883c0 .614.322 1.12.966 1.52.644.374 1.583.734 2.818 1.08.939.214 1.757.44 2.455.681.698.24 1.436.6 2.214 1.08a4.51 4.51 0 0 1 1.771 1.84c.429.748.631 1.628.604 2.642 0 1.92-.752 3.427-2.254 4.521-1.503 1.094-3.368 1.64-5.595 1.64-1.986 0-3.69-.413-5.112-1.24-1.422-.827-2.455-1.974-3.099-3.44l3.743-2.162c.671 1.921 2.16 2.881 4.468 2.881 2.281 0 3.421-.747 3.421-2.24 0-1.094-1.274-1.948-3.824-2.561a26.14 26.14 0 0 1-2.455-.72c-.644-.24-1.369-.587-2.174-1.04a4.87 4.87 0 0 1-1.811-1.801c-.402-.747-.59-1.614-.563-2.601 0-1.84.697-3.321 2.093-4.441 1.422-1.12 3.18-1.68 5.273-1.68 1.663 0 3.139.373 4.427 1.12a7.35 7.35 0 0 1 3.019 3.04l-3.663 2.041c-.671-1.52-1.932-2.28-3.783-2.28-.859 0-1.57.186-2.134.56-.536.373-.805.893-.805 1.56zm16.754 6.322h16.02c.108-.667.161-1.267.161-1.8 0-2.935-.952-5.429-2.858-7.483-1.905-2.054-4.32-3.08-7.245-3.08-3.139 0-5.689 1.013-7.647 3.04-1.986 2.027-2.979 4.521-2.979 7.482 0 3.041 1.006 5.562 3.019 7.563 2.039 1.974 4.682 2.96 7.929 2.96 3.918 0 6.856-1.453 8.815-4.36l-3.582-2.081c-1.181 1.653-2.912 2.48-5.193 2.48-1.69 0-3.112-.413-4.266-1.24-1.127-.827-1.852-1.987-2.174-3.481zm11.794-3.521h-11.834c.295-1.52.98-2.721 2.053-3.601 1.073-.88 2.415-1.32 4.025-1.32 1.476 0 2.724.426 3.743 1.28 1.047.853 1.718 2.067 2.013 3.64zm17.993-8.843c2.335 0 4.2.747 5.595 2.24 1.422 1.468 2.133 3.468 2.133 6.003v12.283h-4.347V18.294c0-1.494-.402-2.641-1.207-3.441-.805-.8-1.905-1.2-3.301-1.2-1.583 0-2.831.493-3.743 1.48-.912.96-1.369 2.387-1.369 4.281v10.723h-4.347V10.131h4.347v2.561c1.342-2.054 3.422-3.08 6.239-3.08zm27.624.52v2.961c-1.637-2.32-3.971-3.48-7.004-3.48-2.844 0-5.246 1.013-7.205 3.04-1.958 1.974-2.938 4.401-2.938 7.282 0 2.854.98 5.295 2.938 7.322 1.986 2.001 4.388 3.002 7.205 3.002 3.033 0 5.367-1.16 7.004-3.482v2.441c0 1.734-.537 3.081-1.61 4.041-1.047.987-2.509 1.48-4.387 1.48-2.872 0-4.831-1.026-5.877-3.08l-3.743 2.16c1.717 3.228 4.897 4.842 9.539 4.842 2.898 0 5.34-.813 7.326-2.44 2.012-1.628 3.019-3.962 3.019-7.003V10.131h-4.267zm-6.4 16.085c-1.825 0-3.354-.6-4.589-1.8-1.207-1.2-1.811-2.695-1.811-4.482 0-1.787.604-3.28 1.811-4.481 1.235-1.2 2.764-1.8 4.589-1.8 1.825 0 3.341.6 4.548 1.8 1.235 1.2 1.852 2.694 1.852 4.481s-.617 3.281-1.852 4.482c-1.207 1.2-2.723 1.8-4.548 1.8zm34.37-4.241h-16.02c.322 1.494 1.046 2.654 2.173 3.481 1.154.827 2.576 1.24 4.267 1.24 2.281 0 4.012-.827 5.192-2.48l3.583 2.08c-1.959 2.908-4.898 4.362-8.815 4.362-3.247 0-5.89-.987-7.93-2.961-2.012-2-3.019-4.522-3.019-7.563 0-2.96.993-5.455 2.979-7.482 1.959-2.027 4.508-3.04 7.648-3.04 2.925 0 5.34 1.026 7.245 3.08 1.905 2.054 2.858 4.548 2.858 7.482 0 .534-.054 1.134-.161 1.8zm-16.061-3.521h11.834c-.295-1.574-.966-2.788-2.012-3.641-1.02-.854-2.268-1.28-3.744-1.28-1.61 0-2.951.44-4.025 1.32-1.073.88-1.757 2.08-2.053 3.6zm23.589-4.962v-3.36h-4.347v20.005h4.347V20.054c0-2.054.617-3.52 1.851-4.401 1.261-.907 2.71-1.307 4.347-1.2V9.77c-3.032 0-5.098 1.24-6.198 3.721zM119.639 24.803l5.151-14.524h4.628l-7.373 19.7h-.004l-3.134 8.347h-4.479l2.961-8.347h.009l.027-.054-8.531-19.646h4.748l5.997 14.524z" fill="#fff"/><path fill-rule="evenodd" clip-rule="evenodd" d="M34.846 6.212c-9.68 0-17.549 7.787-17.549 17.394 0 3.797 1.23 7.31 3.314 10.17L13.788 41h20.055v-.028c.332.018.666.028 1.002.028 9.681 0 17.549-7.788 17.549-17.394 0-9.607-7.868-17.394-17.548-17.394z" fill="#FD0"/><path fill-rule="evenodd" clip-rule="evenodd" d="M16.467 0C23.389.048 33.83 2.878 33.83 22.878L16.29 11.587H12.53C5.61 11.587 0 6.385 0 0H16.467z" fill="#6E46F0"/><path fill-rule="evenodd" clip-rule="evenodd" d="M21.556 11.59c6.804.133 12.275 5.268 12.275 11.584h-13.8c-6.93 0-12.546-5.188-12.546-11.587H21.556v.003z" fill="#BA46F0"/><ellipse cx="42.367" cy="19.879" rx="3.76" ry="3.727" fill="#0A0A1E"/><path fill-rule="evenodd" clip-rule="evenodd" d="M80.64 12.68c-1.987-2.054-4.35-3.082-7.088-3.082-3.06 0-5.41 1.134-7.047 3.403v-2.882h-4.35V38.14h4.35V27.293c1.665 2.241 4.014 3.362 7.047 3.362 2.766 0 5.128-1.014 7.088-3.042 1.96-2.029 2.94-4.524 2.94-7.486 0-2.936-.98-5.418-2.94-7.446zm-7.772 13.852c-1.826 0-3.343-.6-4.55-1.802-1.209-1.254-1.813-2.788-1.813-4.603 0-1.842.604-3.363 1.812-4.564 1.208-1.228 2.725-1.841 4.55-1.841 1.826 0 3.343.613 4.551 1.841 1.209 1.2 1.813 2.722 1.813 4.564 0 1.841-.604 3.376-1.813 4.603-1.208 1.201-2.725 1.802-4.55 1.802zm29.796-16.413v2.842c-1.638-2.242-3.987-3.363-7.048-3.363-2.765 0-5.128 1.014-7.087 3.043-1.96 2.028-2.94 4.523-2.94 7.486 0 2.962.98 5.457 2.94 7.486 1.96 2.028 4.322 3.042 7.087 3.042 3.06 0 5.41-1.134 7.048-3.403v2.883h4.349V10.119h-4.349zm-6.363 16.413c-1.826 0-3.343-.6-4.55-1.802-1.209-1.254-1.813-2.788-1.813-4.603 0-1.842.604-3.363 1.812-4.564 1.208-1.228 2.725-1.841 4.55-1.841 1.826 0 3.343.613 4.552 1.841 1.208 1.2 1.812 2.722 1.812 4.564 0 1.841-.604 3.376-1.812 4.603-1.209 1.201-2.726 1.802-4.551 1.802zm37.78-10.889c0 .614.322 1.12.966 1.521.645.374 1.584.734 2.819 1.081.94.214 1.759.44 2.457.68.698.24 1.436.601 2.215 1.082a4.514 4.514 0 0 1 1.772 1.841c.429.747.631 1.628.604 2.642 0 1.922-.752 3.43-2.255 4.524-1.504 1.094-3.37 1.641-5.598 1.641-1.987 0-3.692-.414-5.115-1.24-1.422-.828-2.456-1.976-3.1-3.444l3.745-2.161c.671 1.921 2.161 2.882 4.47 2.882 2.282 0 3.423-.747 3.423-2.242 0-1.094-1.275-1.948-3.826-2.562-.966-.24-1.785-.48-2.456-.72-.645-.24-1.37-.588-2.175-1.041a4.868 4.868 0 0 1-1.812-1.802c-.403-.747-.591-1.614-.564-2.602 0-1.841.698-3.323 2.094-4.444 1.423-1.12 3.181-1.68 5.276-1.68 1.664 0 3.141.373 4.429 1.12a7.35 7.35 0 0 1 3.021 3.043l-3.665 2.041c-.671-1.521-1.933-2.282-3.785-2.282-.86 0-1.571.187-2.135.56-.537.374-.805.895-.805 1.562zm16.762 6.325h16.028c.108-.667.161-1.267.161-1.801 0-2.936-.953-5.431-2.859-7.486-1.906-2.055-4.322-3.083-7.249-3.083-3.141 0-5.691 1.014-7.651 3.043-1.987 2.028-2.98 4.523-2.98 7.486 0 3.042 1.006 5.564 3.02 7.566 2.04 1.975 4.685 2.962 7.933 2.962 3.92 0 6.86-1.454 8.82-4.363l-3.584-2.082c-1.182 1.655-2.913 2.482-5.195 2.482-1.692 0-3.115-.414-4.269-1.241-1.128-.827-1.853-1.988-2.175-3.483zm11.8-3.523h-11.84c.295-1.52.98-2.722 2.054-3.603 1.074-.88 2.416-1.32 4.027-1.32 1.477 0 2.725.426 3.745 1.28 1.047.854 1.718 2.069 2.014 3.643zm18.002-8.847c2.336 0 4.202.747 5.598 2.242 1.423 1.468 2.134 3.47 2.134 6.005v12.29h-4.349v-11.85c0-1.494-.403-2.642-1.208-3.443-.806-.8-1.906-1.2-3.302-1.2-1.584 0-2.833.493-3.746 1.48-.912.961-1.369 2.39-1.369 4.284v10.729h-4.349V10.119h4.349v2.562c1.342-2.055 3.423-3.083 6.242-3.083zm27.638.52v2.963c-1.638-2.322-3.974-3.483-7.007-3.483-2.846 0-5.249 1.014-7.209 3.043-1.96 1.975-2.94 4.403-2.94 7.286 0 2.855.98 5.297 2.94 7.325 1.987 2.002 4.39 3.003 7.209 3.003 3.033 0 5.369-1.161 7.007-3.483v2.442c0 1.735-.537 3.083-1.611 4.043-1.047.988-2.51 1.482-4.39 1.482-2.872 0-4.832-1.028-5.879-3.083l-3.745 2.162c1.718 3.229 4.899 4.844 9.544 4.844 2.899 0 5.342-.814 7.329-2.442 2.014-1.628 3.02-3.963 3.02-7.006V10.119h-4.268zm-6.403 16.094c-1.826 0-3.356-.6-4.591-1.802-1.208-1.2-1.812-2.695-1.812-4.483 0-1.789.604-3.283 1.812-4.484 1.235-1.201 2.765-1.802 4.591-1.802 1.825 0 3.342.6 4.55 1.802 1.235 1.2 1.853 2.695 1.853 4.484 0 1.788-.618 3.282-1.853 4.483-1.208 1.201-2.725 1.802-4.55 1.802zm34.386-4.244h-16.028c.323 1.495 1.048 2.656 2.175 3.483 1.155.827 2.577 1.241 4.269 1.241 2.282 0 4.014-.827 5.195-2.482l3.584 2.082c-1.96 2.909-4.9 4.363-8.819 4.363-3.249 0-5.893-.987-7.934-2.962-2.013-2.002-3.02-4.524-3.02-7.566 0-2.963.993-5.458 2.98-7.486 1.96-2.029 4.51-3.043 7.651-3.043 2.927 0 5.343 1.028 7.249 3.083 1.906 2.055 2.859 4.55 2.859 7.486 0 .534-.053 1.134-.161 1.801zm-16.068-3.523h11.84c-.295-1.574-.967-2.789-2.014-3.643-1.02-.854-2.268-1.28-3.745-1.28-1.611 0-2.953.44-4.027 1.32-1.074.881-1.758 2.082-2.054 3.603zm23.6-4.964V10.12h-4.349v20.016h4.349V20.047c0-2.055.618-3.523 1.853-4.404 1.262-.907 2.711-1.308 4.349-1.2V9.757c-3.034 0-5.101 1.241-6.202 3.723zM119.699 24.798l5.154-14.532h4.63l-7.376 19.71h-.005l-3.135 8.352h-4.481l2.962-8.352h.01l.027-.054-8.536-19.656h4.751l5.999 14.532z" fill="#fff"/></svg>