<?xml version="1.0" encoding="utf-8"?>
<!-- Generator: Adobe Illustrator 26.1.0, SVG Export Plug-In . SVG Version: 6.00 Build 0)  -->
<svg version="1.1" id="Layer_1" xmlns="http://www.w3.org/2000/svg" xmlns:xlink="http://www.w3.org/1999/xlink" x="0px" y="0px"
	 viewBox="0 0 49 49" style="enable-background:new 0 0 49 49;" xml:space="preserve">
<style type="text/css">
	.st0{fill:#FFFFFF;}
</style>
<g>
	<g>
		<path class="st0" d="M24.5,0C11,0,0,11,0,24.5C0,38,11,49,24.5,49S49,38,49,24.5C49,11,38,0,24.5,0z M4.1,24.5c0-0.7,0-1.4,0.1-2
			h4.1c-0.1,0.7-0.1,1.4-0.1,2c0,0.7,0,1.4,0.1,2H4.2C4.1,25.9,4.1,25.2,4.1,24.5z M38.9,38.9c-3.9,3.9-9,6-14.4,6
			c-5.5,0-10.6-2.1-14.4-6c-2.4-2.4-4.1-5.2-5-8.3h4.3c2.4,6,8.3,10.2,15.1,10.2c8.3,0,15.2-6.2,16.2-14.3h-2.4h-9.4H12.4
			c-0.1-0.7-0.2-1.3-0.2-2s0.1-1.4,0.2-2h12.4v-4.1H13.9c2.1-3.7,6.1-6.1,10.6-6.1c4.5,0,8.5,2.5,10.6,6.1h4.5
			c-2.4-6-8.3-10.2-15.1-10.2S11.8,12.4,9.3,18.4H5c1-3.1,2.7-6,5-8.3c3.9-3.9,9-6,14.4-6c5.5,0,10.6,2.1,14.4,6c3.9,3.9,6,9,6,14.4
			C44.9,30,42.8,35.1,38.9,38.9z M13.9,30.6h21.2c-2.1,3.7-6.1,6.1-10.6,6.1C20,36.8,16,34.3,13.9,30.6z"/>
	</g>
</g>
</svg>
