<svg width="129" height="43" viewBox="0 0 129 43" fill="none" xmlns="http://www.w3.org/2000/svg">
<g clip-path="url(#clip0_18_9250)">
<g clip-path="url(#clip1_18_9250)">
<rect x="0.5" y="0.5" width="128" height="42" rx="8.1" stroke="white"/>
</g>
<path fill-rule="evenodd" clip-rule="evenodd" d="M63.5258 9.07129H64.4811V15.8016H63.5258V9.07129ZM40.6631 9.38717C41.082 9.35711 41.5023 9.42038 41.8937 9.57242C42.2851 9.72446 42.6379 9.96148 42.9266 10.2664C43.2154 10.5713 43.4328 10.9365 43.5633 11.3356C43.6938 11.7347 43.7341 12.1578 43.6813 12.5744C43.6813 14.6236 42.5738 15.8015 40.6631 15.8015H38.3462V9.38717H40.6631ZM39.3425 14.8944H40.5519C40.8512 14.9123 41.1507 14.8632 41.4286 14.7507C41.7065 14.6383 41.9559 14.4653 42.1585 14.2443C42.3611 14.0233 42.5119 13.7599 42.5999 13.4733C42.6879 13.1867 42.7109 12.8841 42.6672 12.5874C42.7078 12.292 42.6824 11.9912 42.5931 11.7067C42.5037 11.4222 42.3526 11.161 42.1504 10.9418C41.9482 10.7225 41.7001 10.5507 41.4237 10.4387C41.1473 10.3266 40.8496 10.2771 40.5519 10.2936H39.3425V14.8944ZM80.2799 31.2584C78.5226 31.2584 77.2366 30.3892 77.0885 29.0654L75.0435 29.0653C75.1726 31.4798 77.1714 33.0073 80.1319 33.0073C83.296 33.0073 85.2854 31.4431 85.2854 28.9456C85.2854 26.993 84.1474 25.8928 81.4084 25.245L79.9377 24.8839C78.217 24.4588 77.5137 23.9034 77.5137 22.9597C77.5137 21.7755 78.6149 20.9619 80.2243 20.9619C81.8336 20.9619 82.9349 21.766 83.0556 23.0982H85.0723C85.0072 20.795 83.0734 19.2129 80.2526 19.2129C77.4024 19.2129 75.3952 20.795 75.3952 23.0982C75.3952 24.9585 76.5332 26.1049 78.9845 26.697L80.7146 27.1137C82.4446 27.5389 83.1753 28.1593 83.1753 29.1955C83.1753 30.3891 81.9638 31.2584 80.2799 31.2584ZM40.3865 29.1757H45.4749L46.6958 32.7839H48.8878L44.0682 19.4345H41.8289L37.0093 32.7839H39.1645L40.3865 29.1757ZM44.9469 27.5107H40.9135L42.9029 21.6549H42.9586L44.9469 27.5107ZM55.2347 32.8855C57.6776 32.8855 59.2964 30.9423 59.2964 27.9178C59.2964 24.9017 57.6681 22.9491 55.198 22.9491C54.5741 22.9289 53.9565 23.0783 53.4108 23.3813C52.8651 23.6843 52.4117 24.1295 52.0989 24.6697H52.0622V23.0509H50.1284V36.0034H52.1262V31.1827H52.1724C52.4715 31.7254 52.9173 32.173 53.4589 32.4741C54.0005 32.7753 54.6159 32.9178 55.2347 32.8855ZM54.671 24.6519C56.2247 24.6519 57.243 25.9473 57.243 27.9178C57.243 29.9061 56.2247 31.1921 54.671 31.1921C53.1445 31.1921 52.1178 29.8788 52.1178 27.9178C52.1178 25.9746 53.1445 24.6519 54.671 24.6519ZM70.0089 27.9178C70.0089 30.9423 68.3901 32.8855 65.9472 32.8855C65.3284 32.9178 64.713 32.7753 64.1714 32.4741C63.6298 32.173 63.184 31.7254 62.885 31.1827H62.8387V36.0034H60.841V23.0509H62.7747V24.6697H62.8114C63.1242 24.1295 63.5776 23.6843 64.1233 23.3813C64.669 23.0783 65.2866 22.9289 65.9105 22.9491C68.3807 22.9491 70.0089 24.9017 70.0089 27.9178ZM67.9555 27.9178C67.9555 25.9473 66.9372 24.6518 65.3835 24.6518C63.8571 24.6518 62.8304 25.9746 62.8304 27.9178C62.8304 29.8788 63.8571 31.1921 65.3835 31.1921C66.9372 31.1921 67.9555 29.9061 67.9555 27.9178ZM89.5971 20.75V23.0533H91.4479V24.6353H89.5971V30.0009C89.5971 30.8344 89.9677 31.2229 90.7813 31.2229C91.001 31.219 91.2204 31.2036 91.4385 31.1766V32.7492C91.0727 32.8176 90.7009 32.8485 90.3288 32.8416C88.3584 32.8416 87.5899 32.1015 87.5899 30.214V24.6353H86.1748V23.0533H87.5899V20.75H89.5971ZM97.1355 22.9336C94.3231 22.9336 92.5195 24.8579 92.5195 27.9202C92.5195 30.9908 94.3052 32.9067 97.1355 32.9067C99.9669 32.9067 101.753 30.9909 101.753 27.9202C101.753 24.8578 99.9574 22.9336 97.1355 22.9336ZM97.1355 24.5797C98.7543 24.5797 99.717 25.8195 99.717 27.9202C99.717 30.0292 98.7543 31.2596 97.1355 31.2596C95.5167 31.2596 94.5551 30.0292 94.5551 27.9202C94.5551 25.829 95.5167 24.5797 97.1355 24.5797ZM103.4 23.0508H105.305V24.7074H105.352C105.481 24.19 105.784 23.7328 106.21 23.4125C106.636 23.0923 107.16 22.9286 107.693 22.949C107.923 22.9482 108.153 22.9732 108.377 23.0235V24.8922C108.087 24.8033 107.783 24.7626 107.48 24.7714C107.189 24.7597 106.9 24.8108 106.631 24.9214C106.363 25.032 106.121 25.1994 105.924 25.4122C105.726 25.6249 105.576 25.8779 105.486 26.1538C105.395 26.4298 105.365 26.7221 105.398 27.0107V32.7835H103.4L103.4 23.0508ZM113.397 32.9067C115.599 32.9067 117.319 31.6942 117.588 29.9274L115.691 29.9274C115.514 30.3672 115.199 30.7379 114.794 30.9846C114.389 31.2312 113.916 31.3406 113.443 31.2963C113.084 31.3096 112.726 31.2462 112.393 31.1104C112.06 30.9746 111.76 30.7696 111.512 30.5088C111.265 30.2481 111.075 29.9376 110.957 29.5981C110.838 29.2586 110.794 28.8977 110.825 28.5396V28.4188H117.699V27.7344C117.699 24.7833 116.006 22.9336 113.313 22.9336C110.575 22.9336 108.809 24.9135 108.809 27.9664C108.809 31.0097 110.566 32.9067 113.397 32.9067ZM115.701 27.0226H110.835C110.834 26.6973 110.897 26.375 111.022 26.0744C111.146 25.7737 111.329 25.5007 111.559 25.2711C111.79 25.0414 112.063 24.8597 112.364 24.7363C112.665 24.613 112.988 24.5505 113.313 24.5524C113.636 24.5455 113.956 24.6053 114.254 24.7281C114.553 24.8508 114.822 25.0339 115.047 25.2659C115.271 25.4978 115.445 25.7736 115.557 26.0759C115.67 26.3782 115.718 26.7005 115.701 27.0226ZM44.9136 12.4374C44.8127 12.7406 44.7763 13.0616 44.8067 13.3797C44.7757 13.6982 44.8117 14.0196 44.9123 14.3233C45.0129 14.627 45.1759 14.9063 45.3909 15.1432C45.6059 15.3802 45.8681 15.5695 46.1606 15.6991C46.4532 15.8287 46.7696 15.8956 47.0895 15.8956C47.4095 15.8956 47.7259 15.8287 48.0184 15.6991C48.3109 15.5695 48.5731 15.3802 48.7881 15.1432C49.0031 14.9063 49.1661 14.627 49.2668 14.3233C49.3674 14.0196 49.4033 13.6982 49.3723 13.3797C49.4028 13.0616 49.3664 12.7406 49.2655 12.4374C49.1646 12.1342 49.0015 11.8554 48.7865 11.6189C48.5716 11.3824 48.3096 11.1935 48.0174 11.0642C47.7251 10.9349 47.4091 10.8681 47.0895 10.8681C46.77 10.8681 46.4539 10.9349 46.1617 11.0642C45.8694 11.1935 45.6074 11.3824 45.3925 11.6189C45.1776 11.8554 45.0144 12.1342 44.9136 12.4374ZM47.0911 11.7168C47.9183 11.7168 48.3897 12.3304 48.3897 13.3797C48.3897 14.4332 47.9184 15.0463 47.0911 15.0463C46.2607 15.0463 45.7936 14.4374 45.7936 13.3797C45.7936 12.3304 46.2607 11.7168 47.0911 11.7168ZM55.4412 15.8016H54.4502L53.4498 12.2364H53.3742L52.3779 15.8016H51.3964L50.0621 10.9609H51.031L51.8982 14.6546H51.9696L52.9648 10.9609H53.8813L54.8765 14.6546H54.952L55.815 10.9609H56.7703L55.4412 15.8016ZM58.8122 10.9605H57.8925L57.8925 15.8012H58.8478V12.9693C58.8309 12.8101 58.8486 12.6492 58.8997 12.4974C58.9508 12.3457 59.0341 12.2068 59.1439 12.0903C59.2536 11.9738 59.3873 11.8824 59.5357 11.8224C59.6841 11.7624 59.8438 11.7352 60.0037 11.7426C60.7102 11.7426 61.0482 12.1295 61.0482 12.9074V15.8011H62.0036V12.6675C62.0381 12.4338 62.0197 12.1954 61.9496 11.9698C61.8795 11.7443 61.7596 11.5374 61.5987 11.3645C61.4377 11.1916 61.24 11.0571 61.0201 10.971C60.8001 10.8849 60.5636 10.8494 60.3281 10.8671C60.0275 10.8426 59.7268 10.9126 59.4678 11.0672C59.2089 11.2218 59.0047 11.4533 58.8835 11.7295H58.8122V10.9605ZM65.916 12.4356C65.8151 12.7388 65.7787 13.0598 65.8091 13.3779C65.7782 13.6964 65.8141 14.0178 65.9148 14.3215C66.0154 14.6252 66.1785 14.9045 66.3935 15.1414C66.6085 15.3784 66.8707 15.5677 67.1633 15.6973C67.4558 15.8268 67.7722 15.8938 68.0922 15.8938C68.4121 15.8938 68.7286 15.8268 69.0211 15.6973C69.3136 15.5677 69.5758 15.3784 69.7909 15.1414C70.0059 14.9045 70.1689 14.6252 70.2696 14.3215C70.3702 14.0178 70.4062 13.6964 70.3752 13.3779C70.4057 13.0598 70.3692 12.7388 70.2683 12.4356C70.1674 12.1323 70.0043 11.8535 69.7893 11.617C69.5744 11.3806 69.3124 11.1916 69.0201 11.0623C68.7278 10.933 68.4118 10.8662 68.0922 10.8662C67.7726 10.8662 67.4566 10.933 67.1643 11.0623C66.872 11.1916 66.61 11.3806 66.3951 11.617C66.1801 11.8535 66.0169 12.1323 65.916 12.4356ZM68.0935 11.715C68.9207 11.715 69.3921 12.3286 69.3921 13.3779C69.3921 14.4314 68.9207 15.0445 68.0935 15.0445C67.2631 15.0445 66.796 14.4356 66.796 13.3779C66.796 12.3286 67.2631 11.715 68.0935 11.715ZM71.381 14.4332C71.381 13.5619 72.0297 13.0596 73.1814 12.9882L74.4926 12.9126V12.4948C74.4926 11.9835 74.1545 11.6948 73.5016 11.6948C72.9683 11.6948 72.5987 11.8906 72.4927 12.2329H71.5678C71.6655 11.4014 72.4476 10.8681 73.5457 10.8681C74.7592 10.8681 75.4437 11.4723 75.4437 12.4948V15.8022H74.5241V15.1219H74.4485C74.2951 15.3659 74.0796 15.5649 73.8242 15.6984C73.5687 15.8319 73.2824 15.8953 72.9945 15.8819C72.7913 15.9031 72.5859 15.8814 72.3916 15.8183C72.1973 15.7552 72.0183 15.6521 71.8663 15.5156C71.7143 15.3791 71.5926 15.2123 71.509 15.0258C71.4254 14.8394 71.3818 14.6375 71.381 14.4332ZM74.4926 14.0196V13.6149L73.3105 13.6905C72.6439 13.7351 72.3415 13.9619 72.3415 14.3886C72.3415 14.8243 72.7195 15.0778 73.2392 15.0778C73.3914 15.0932 73.5452 15.0778 73.6914 15.0326C73.8376 14.9874 73.9733 14.9132 74.0902 14.8144C74.2071 14.7157 74.303 14.5945 74.3722 14.4579C74.4413 14.3214 74.4822 14.1723 74.4926 14.0196ZM78.7085 10.8806C77.4855 10.8806 76.6992 11.8496 76.6992 13.3792C76.6992 14.9124 77.4771 15.8814 78.7085 15.8814C79.0149 15.8927 79.3184 15.8199 79.5864 15.6711C79.8543 15.5222 80.0764 15.3028 80.2287 15.0368H80.3043V15.8016H81.2197V9.07129H80.2644V11.7299H80.193C80.0517 11.462 79.837 11.2399 79.5742 11.0895C79.3113 10.9392 79.0111 10.8667 78.7085 10.8806ZM78.9794 15.0237C78.17 15.0237 77.6861 14.4059 77.6861 13.3792C77.686 12.3609 78.1752 11.7389 78.9794 11.7389C79.7794 11.7389 80.2822 12.3745 80.2822 13.3834C80.2822 14.397 79.7846 15.0237 78.9794 15.0237ZM85.1724 13.3797C85.142 13.0616 85.1784 12.7406 85.2793 12.4374C85.3801 12.1342 85.5433 11.8554 85.7582 11.6189C85.9732 11.3824 86.2352 11.1935 86.5274 11.0642C86.8196 10.9349 87.1357 10.8681 87.4552 10.8681C87.7748 10.8681 88.0908 10.9349 88.3831 11.0642C88.6753 11.1935 88.9373 11.3824 89.1522 11.6189C89.3672 11.8554 89.5303 12.1342 89.6312 12.4374C89.7321 12.7406 89.7685 13.0616 89.738 13.3797C89.7691 13.6982 89.7331 14.0196 89.6325 14.3233C89.5319 14.627 89.3688 14.9063 89.1538 15.1432C88.9388 15.3802 88.6767 15.5695 88.3841 15.6991C88.0916 15.8287 87.7752 15.8956 87.4552 15.8956C87.1353 15.8956 86.8189 15.8287 86.5264 15.6991C86.2338 15.5695 85.9716 15.3802 85.7566 15.1432C85.5416 14.9063 85.3786 14.627 85.278 14.3233C85.1774 14.0196 85.1414 13.6982 85.1724 13.3797ZM88.7554 13.3797C88.7554 12.3304 88.284 11.7168 87.4568 11.7168C86.6264 11.7168 86.1593 12.3304 86.1593 13.3797C86.1593 14.4374 86.6264 15.0463 87.4568 15.0463C88.2841 15.0463 88.7554 14.4332 88.7554 13.3797ZM91.9392 10.9605H91.0196V15.8012H91.9749V12.9693C91.958 12.8101 91.9757 12.6492 92.0268 12.4974C92.0779 12.3457 92.1611 12.2068 92.2709 12.0903C92.3807 11.9738 92.5144 11.8824 92.6628 11.8224C92.8112 11.7624 92.9709 11.7352 93.1308 11.7426C93.8373 11.7426 94.1753 12.1295 94.1753 12.9074V15.8011H95.1306V12.6675C95.1652 12.4338 95.1468 12.1954 95.0767 11.9698C95.0066 11.7443 94.8867 11.5374 94.7257 11.3645C94.5648 11.1916 94.3671 11.0571 94.1471 10.971C93.9272 10.8849 93.6907 10.8494 93.4552 10.8671C93.1546 10.8426 92.8539 10.9126 92.5949 11.0672C92.336 11.2218 92.1317 11.4533 92.0106 11.7295H91.9392V10.9605ZM100.529 9.75489V10.9821H101.577V11.7868H100.529V14.2759C100.529 14.7829 100.737 15.005 101.213 15.005C101.335 15.0046 101.456 14.9972 101.577 14.9829V15.7787C101.406 15.8094 101.232 15.8257 101.058 15.8275C99.9953 15.8275 99.5722 15.4537 99.5722 14.5205V11.7867H98.8037V10.9821H99.5722V9.75489H100.529ZM103.829 9.07129H102.882L102.882 15.8016H103.838V12.9745C103.823 12.8104 103.845 12.645 103.901 12.4901C103.957 12.3352 104.046 12.1943 104.162 12.0774C104.278 11.9605 104.418 11.8704 104.573 11.8134C104.727 11.7563 104.892 11.7338 105.057 11.7472C105.732 11.7472 106.092 12.1388 106.092 12.912V15.8016H107.048V12.6763C107.079 12.4438 107.059 12.2072 106.988 11.9834C106.917 11.7597 106.798 11.5543 106.639 11.3819C106.48 11.2096 106.284 11.0745 106.067 10.9863C105.849 10.8981 105.615 10.859 105.381 10.8717C105.076 10.8469 104.77 10.9169 104.506 11.0721C104.242 11.2272 104.032 11.4601 103.905 11.7388H103.829V9.07129ZM112.618 14.4934C112.489 14.9358 112.207 15.3185 111.824 15.5745C111.441 15.8305 110.979 15.9435 110.521 15.8938C110.202 15.9022 109.885 15.8411 109.592 15.7148C109.299 15.5885 109.037 15.3999 108.824 15.1622C108.612 14.9244 108.453 14.6433 108.36 14.3381C108.267 14.033 108.241 13.7113 108.285 13.3953C108.242 13.0783 108.268 12.7558 108.361 12.4498C108.454 12.1438 108.612 11.8613 108.824 11.6215C109.035 11.3817 109.296 11.1902 109.588 11.0599C109.88 10.9296 110.197 10.8636 110.517 10.8663C111.864 10.8663 112.676 11.7865 112.676 13.3065V13.6399H109.258V13.6934C109.243 13.8711 109.265 14.0499 109.324 14.2184C109.382 14.3869 109.474 14.5414 109.596 14.6719C109.717 14.8025 109.865 14.9063 110.028 14.9766C110.192 15.0469 110.369 15.0822 110.547 15.0802C110.776 15.1076 111.007 15.0665 111.212 14.962C111.417 14.8575 111.587 14.6943 111.699 14.4933L112.618 14.4934ZM109.258 12.9334H111.703C111.715 12.7709 111.693 12.6077 111.638 12.4543C111.583 12.3009 111.497 12.1606 111.385 12.0425C111.273 11.9244 111.137 11.8311 110.987 11.7686C110.836 11.706 110.674 11.6756 110.511 11.6794C110.346 11.6773 110.182 11.7083 110.029 11.7706C109.876 11.8329 109.737 11.9252 109.62 12.0421C109.503 12.1589 109.411 12.298 109.349 12.4511C109.287 12.6042 109.256 12.7681 109.258 12.9334ZM23.6898 13.1285C24.5622 12.0812 24.992 10.7351 24.8879 9.37604C23.5551 9.51603 22.324 10.153 21.4398 11.1601C21.0075 11.6521 20.6764 12.2245 20.4654 12.8445C20.2545 13.4645 20.1678 14.1201 20.2103 14.7736C20.877 14.7805 21.5365 14.636 22.1392 14.351C22.7419 14.0661 23.2721 13.648 23.6898 13.1285ZM26.6263 21.8238C26.6379 20.9265 26.8762 20.0468 27.3192 19.2664C27.7621 18.486 28.3952 17.8303 29.1597 17.3603C28.674 16.6668 28.0334 16.096 27.2886 15.6934C26.5438 15.2907 25.7154 15.0673 24.8692 15.0408C23.7649 14.9249 22.6814 15.355 21.7958 15.7065C21.2336 15.9296 20.7512 16.121 20.394 16.121C19.9877 16.121 19.4915 15.9217 18.9354 15.6984C18.2084 15.4063 17.3791 15.0732 16.5149 15.091C15.5284 15.1229 14.567 15.4098 13.7243 15.9237C12.8816 16.4376 12.1865 17.161 11.7065 18.0235C9.62746 21.623 11.1782 26.9132 13.1698 29.8228C14.1662 31.2475 15.3307 32.839 16.8545 32.7826C17.5457 32.7539 18.0362 32.5475 18.5428 32.3343C19.129 32.0876 19.7369 31.8318 20.7024 31.8318C21.6127 31.8318 22.1945 32.0796 22.7528 32.3174C23.2881 32.5454 23.8017 32.7643 24.5627 32.7467C26.1627 32.7207 27.1708 31.3156 28.1322 29.8774C28.8482 28.8622 29.3991 27.7402 29.7645 26.5529C28.835 26.1598 28.0417 25.5017 27.4837 24.6607C26.9256 23.8197 26.6274 22.8331 26.6263 21.8238Z" fill="white"/>
</g>
<defs>
<clipPath id="clip0_18_9250">
<rect width="129" height="43" fill="white"/>
</clipPath>
<clipPath id="clip1_18_9250">
<rect width="129" height="43" fill="white"/>
</clipPath>
</defs>
</svg>
