<svg width="320" height="513" viewBox="0 0 320 513" fill="none" xmlns="http://www.w3.org/2000/svg">
<g clip-path="url(#clip0_1_1756)">
<path d="M320 513C249.216 513 191.833 455.58 191.833 384.75C191.833 313.919 249.216 256.5 320 256.5L320 513Z" fill="#20203F"/>
<path d="M63.6667 256.5C63.6667 327.33 6.28387 384.75 -64.5 384.75C-135.284 384.75 -192.667 327.33 -192.667 256.5L63.6667 256.5Z" fill="#20203F"/>
<path d="M63.6667 128.25C63.6667 57.4201 121.049 2.00774e-05 191.833 4.48443e-05C262.617 6.96108e-05 320 57.4202 320 128.25L63.6667 128.25Z" fill="#20203F"/>
<path d="M63.6666 384.75C63.6666 455.58 6.28384 513 -64.5001 513C-135.284 513 -192.667 455.58 -192.667 384.75L63.6666 384.75Z" fill="#161633"/>
<path fill-rule="evenodd" clip-rule="evenodd" d="M191.833 384.75C191.833 313.92 134.451 256.5 63.6666 256.5L63.6666 384.75C63.6666 455.58 121.049 513 191.833 513L191.833 384.75Z" fill="#1C1C3C"/>
<path d="M127.75 128.25C92.3578 128.25 63.6667 156.96 63.6667 192.375C63.6667 227.79 92.3578 256.5 127.75 256.5C163.142 256.5 191.833 227.79 191.833 192.375C191.833 156.96 163.142 128.25 127.75 128.25Z" fill="#161633"/>
<path d="M255.917 256.5C220.525 256.5 191.833 227.79 191.833 192.375C191.833 156.96 220.525 128.25 255.917 128.25C291.309 128.25 320 156.96 320 192.375L320 256.5L255.917 256.5Z" fill="#161633"/>
<path d="M-64.5 -5.5858e-06C6.28391 -2.50087e-06 63.6667 57.4194 63.6667 128.25C63.6667 199.08 6.28389 256.5 -64.5 256.5C-135.284 256.5 -192.667 199.08 -192.667 128.25L-192.667 -1.11716e-05L-64.5 -5.5858e-06Z" fill="#161633"/>
</g>
<defs>
<clipPath id="clip0_1_1756">
<rect x="320" width="513" height="769" transform="rotate(90 320 0)" fill="white"/>
</clipPath>
</defs>
</svg>
