<svg width="470" height="290" viewBox="0 0 470 290" fill="none" xmlns="http://www.w3.org/2000/svg">
<g clip-path="url(#clip0_92_217)">
<path style="mix-blend-mode:screen" opacity="0.5" d="M239.827 70.2843L0 145.832L147.76 276.285L412.621 49.2051L239.827 70.2843Z" fill="url(#paint0_linear_92_217)"/>
<path style="mix-blend-mode:screen" d="M470 0L155.498 225.77L210.84 288.147L272.938 289.469L470 0Z" fill="url(#paint1_linear_92_217)"/>
<path style="mix-blend-mode:screen" d="M467.902 0L45.336 199.415L52.3704 166.911L8.44135 141.441L467.902 0Z" fill="url(#paint2_linear_92_217)"/>
<path d="M470 0L229.287 113.11L252.125 186.68L470 0Z" fill="url(#paint3_linear_92_217)"/>
<path style="mix-blend-mode:multiply" d="M470 0L229.287 113.11L252.125 186.68L470 0Z" fill="url(#paint4_linear_92_217)"/>
<path d="M470 0L229.287 113.11L189.203 115.851L165.492 93.886L470 0Z" fill="url(#paint5_linear_92_217)"/>
<path d="M470 0L274.963 139.683L252.125 186.68L470 0Z" fill="url(#paint6_linear_92_217)"/>
<path style="mix-blend-mode:multiply" d="M470 0L274.963 139.683L252.125 186.68L470 0Z" fill="url(#paint7_linear_92_217)"/>
<path d="M470 0L274.963 139.683L305.381 173.169L342.724 186.79L470 0Z" fill="url(#paint8_linear_92_217)"/>
<path d="M342.724 186.79L305.381 173.17L274.963 139.683L252.125 186.681L229.287 113.11L189.203 115.851L165.492 93.8862L190.088 115.196L229.979 112.831L252.344 183.6L274.963 139.683L305.502 171.751L342.724 186.79Z" fill="white"/>
</g>
<defs>
<linearGradient id="paint0_linear_92_217" x1="309.371" y1="-1.17634" x2="123.685" y2="176.638" gradientUnits="userSpaceOnUse">
<stop offset="0.64" stop-color="white" stop-opacity="0.1"/>
<stop offset="0.72" stop-color="white" stop-opacity="0.06"/>
<stop offset="0.86" stop-color="white" stop-opacity="0.01"/>
<stop offset="1" stop-color="white" stop-opacity="0"/>
</linearGradient>
<linearGradient id="paint1_linear_92_217" x1="389.225" y1="83.5405" x2="223.187" y2="248.693" gradientUnits="userSpaceOnUse">
<stop offset="0.52" stop-color="white" stop-opacity="0.1"/>
<stop offset="0.62" stop-color="white" stop-opacity="0.06"/>
<stop offset="0.81" stop-color="white" stop-opacity="0.01"/>
<stop offset="1" stop-color="white" stop-opacity="0"/>
</linearGradient>
<linearGradient id="paint2_linear_92_217" x1="355.763" y1="40.3391" x2="78.1676" y2="150.15" gradientUnits="userSpaceOnUse">
<stop offset="0.62" stop-color="#F8F7F9" stop-opacity="0.1"/>
<stop offset="0.7" stop-color="#FAFAFB" stop-opacity="0.06"/>
<stop offset="0.85" stop-color="#FDFDFE" stop-opacity="0.02"/>
<stop offset="1" stop-color="white" stop-opacity="0"/>
</linearGradient>
<linearGradient id="paint3_linear_92_217" x1="377.982" y1="156.262" x2="342.397" y2="31.073" gradientUnits="userSpaceOnUse">
<stop stop-color="#D4D1D8"/>
<stop offset="1" stop-color="white"/>
</linearGradient>
<linearGradient id="paint4_linear_92_217" x1="355.92" y1="82.0365" x2="344.944" y2="57.8768" gradientUnits="userSpaceOnUse">
<stop stop-color="white"/>
<stop offset="1" stop-color="#E6E7E8"/>
</linearGradient>
<linearGradient id="paint5_linear_92_217" x1="115.511" y1="-69.3502" x2="316.382" y2="50.0661" gradientUnits="userSpaceOnUse">
<stop stop-color="#D4D1D8"/>
<stop offset="1" stop-color="white"/>
</linearGradient>
<linearGradient id="paint6_linear_92_217" x1="258.517" y1="107.47" x2="361.305" y2="93.3038" gradientUnits="userSpaceOnUse">
<stop stop-color="#D4D1D8"/>
<stop offset="1" stop-color="white"/>
</linearGradient>
<linearGradient id="paint7_linear_92_217" x1="356.248" y1="194.528" x2="358.94" y2="137.973" gradientUnits="userSpaceOnUse">
<stop stop-color="white"/>
<stop offset="1" stop-color="#DEDFE0"/>
</linearGradient>
<linearGradient id="paint8_linear_92_217" x1="517.349" y1="170.732" x2="360.323" y2="68.8287" gradientUnits="userSpaceOnUse">
<stop stop-color="#D4D1D8"/>
<stop offset="1" stop-color="white"/>
</linearGradient>
<clipPath id="clip0_92_217">
<rect width="470" height="289.469" fill="white"/>
</clipPath>
</defs>
</svg>
