<svg width="15" height="18" viewBox="0 0 15 18" fill="none" xmlns="http://www.w3.org/2000/svg">
<path d="M13.4211 15.9854H4.73684V4.93277H13.4211M13.4211 3.35382H4.73684C4.31808 3.35382 3.91647 3.52017 3.62036 3.81628C3.32425 4.11239 3.15789 4.514 3.15789 4.93277V15.9854C3.15789 16.4042 3.32425 16.8058 3.62036 17.1019C3.91647 17.398 4.31808 17.5643 4.73684 17.5643H13.4211C13.8398 17.5643 14.2414 17.398 14.5375 17.1019C14.8336 16.8058 15 16.4042 15 15.9854V4.93277C15 4.514 14.8336 4.11239 14.5375 3.81628C14.2414 3.52017 13.8398 3.35382 13.4211 3.35382ZM11.0526 0.195923H1.57895C1.16018 0.195923 0.758573 0.362276 0.462463 0.658386C0.166353 0.954496 0 1.35611 0 1.77487V12.8275H1.57895V1.77487H11.0526V0.195923Z" fill="white"/>
</svg>
