<svg width="24" height="24" viewBox="0 0 24 24" fill="none" xmlns="http://www.w3.org/2000/svg">
<g clip-path="url(#clip0_23_9348)">
<path d="M12.237 3H15.333C15.366 3.135 15.393 3.272 15.411 3.41C15.5053 4.48678 15.9979 5.48966 16.7924 6.22256C17.5869 6.95546 18.6261 7.36567 19.707 7.373V10.292C19.5619 10.3393 19.4095 10.3603 19.257 10.354C18.537 10.274 17.824 10.144 17.121 9.967C16.5148 9.73389 15.9251 9.45993 15.356 9.147V14.246C15.364 14.886 15.323 15.525 15.233 16.158C15.0972 17.215 14.6929 18.2195 14.0586 19.0759C13.4244 19.9322 12.5814 20.6119 11.61 21.05C11.04 21.26 10.455 21.43 9.86001 21.561H8.78601C8.74071 21.5396 8.69392 21.5216 8.64601 21.507C7.55554 21.3682 6.53123 20.9074 5.704 20.1835C4.87676 19.4596 4.28419 18.5054 4.00201 17.443C3.87201 16.981 3.77401 16.51 3.70801 16.034V15.129C3.79301 14.703 3.85501 14.277 3.97801 13.859C4.32699 12.7428 5.00114 11.7562 5.91415 11.0254C6.82717 10.2947 7.9375 9.85301 9.10301 9.757C9.45101 9.702 9.80001 9.687 10.171 9.656V12.528C10.171 12.752 10.055 12.783 9.86901 12.838C9.27601 12.973 8.69401 13.155 8.12801 13.379C7.6921 13.5432 7.31759 13.8381 7.0557 14.2233C6.79382 14.6085 6.65736 15.0653 6.66501 15.531C6.63183 16.0592 6.75498 16.5855 7.01908 17.0442C7.28317 17.5028 7.67652 17.8735 8.15001 18.11C8.58312 18.3775 9.0861 18.5099 9.59477 18.4903C10.1034 18.4707 10.5947 18.3 11.006 18C11.3141 17.7795 11.5725 17.4968 11.7646 17.1703C11.9567 16.8437 12.0781 16.4804 12.121 16.104C12.213 15.334 12.252 14.558 12.237 13.782V3.464C12.26 3.302 12.245 3.154 12.237 3Z" fill="white"/>
</g>
<defs>
<clipPath id="clip0_23_9348">
<rect width="24" height="24" fill="white"/>
</clipPath>
</defs>
</svg>
