<svg width="24" height="24" viewBox="0 0 24 24" fill="none" xmlns="http://www.w3.org/2000/svg">
<g clip-path="url(#clip0_23_9368)">
<path fill-rule="evenodd" clip-rule="evenodd" d="M13.287 11.9881C13.287 15.4011 10.539 18.1681 7.14996 18.1681C3.75996 18.1681 1.01196 15.4011 1.01196 11.9881C1.01196 8.57511 3.75996 5.80811 7.14996 5.80811C10.54 5.80811 13.287 8.57511 13.287 11.9881ZM20.02 11.9881C20.02 15.2001 18.646 17.8051 16.951 17.8051C15.256 17.8051 13.882 15.2001 13.882 11.9881C13.882 8.77611 15.256 6.17011 16.951 6.17011C18.646 6.17011 20.02 8.77511 20.02 11.9881ZM21.694 17.2001C22.291 17.2001 22.774 14.8661 22.774 11.9881C22.774 9.11011 22.29 6.77611 21.694 6.77611C21.099 6.77611 20.615 9.11011 20.615 11.9881C20.615 14.8661 21.097 17.2001 21.694 17.2001Z" fill="white"/>
</g>
<defs>
<clipPath id="clip0_23_9368">
<rect width="24" height="24" fill="white"/>
</clipPath>
</defs>
</svg>
