<svg width="24" height="24" viewBox="0 0 24 24" fill="none" xmlns="http://www.w3.org/2000/svg">
<path d="M18.957 5.26709C18.9515 5.25625 18.9423 5.24773 18.931 5.24309C17.6326 4.65705 16.2645 4.23966 14.86 4.00109C14.8473 3.99869 14.8341 4.00028 14.8223 4.00565C14.8105 4.01102 14.8006 4.0199 14.794 4.03109C14.608 4.36409 14.439 4.70609 14.288 5.05609C12.7721 4.82958 11.2309 4.82958 9.71501 5.05609C9.56301 4.70609 9.39101 4.36309 9.20101 4.03109C9.19433 4.02 9.18445 4.0112 9.17267 4.00585C9.16089 4.00049 9.14776 3.99883 9.13501 4.00109C7.73079 4.23925 6.36295 4.65666 5.06501 5.24309C5.05346 5.24757 5.04365 5.25563 5.03701 5.26609C2.44401 9.07809 1.73401 12.7961 2.08301 16.4671C2.084 16.4761 2.08682 16.4849 2.09129 16.4928C2.09576 16.5007 2.10179 16.5076 2.10901 16.5131C3.61901 17.6131 5.30701 18.4531 7.10301 18.9971C7.11554 19.0009 7.12892 19.0008 7.14141 18.9969C7.1539 18.993 7.16492 18.9854 7.17301 18.9751C7.55901 18.4581 7.90001 17.9111 8.19501 17.3391C8.20092 17.3273 8.20285 17.3139 8.2005 17.3009C8.19816 17.2879 8.19167 17.2761 8.18201 17.2671C8.17572 17.261 8.16823 17.2562 8.16001 17.2531C7.62168 17.0502 7.10008 16.8055 6.60001 16.5211C6.59094 16.5159 6.58328 16.5086 6.57773 16.4998C6.57218 16.491 6.56892 16.4809 6.56822 16.4705C6.56753 16.4601 6.56943 16.4496 6.57376 16.4402C6.57808 16.4307 6.5847 16.4224 6.59301 16.4161C6.69801 16.3391 6.80301 16.2591 6.90301 16.1771C6.91202 16.1698 6.92288 16.1652 6.93437 16.1638C6.94586 16.1624 6.95751 16.1642 6.96801 16.1691C10.241 17.6391 13.785 17.6391 17.019 16.1691C17.0295 16.1643 17.0412 16.1626 17.0526 16.164C17.0641 16.1654 17.075 16.1699 17.084 16.1771C17.184 16.2571 17.289 16.3391 17.395 16.4171C17.4033 16.4231 17.4101 16.4311 17.4146 16.4404C17.4191 16.4496 17.4213 16.4598 17.421 16.4701C17.4205 16.4805 17.4173 16.4906 17.4119 16.4995C17.4065 16.5084 17.399 16.5158 17.39 16.5211C16.891 16.8081 16.369 17.0521 15.829 17.2511C15.8206 17.2543 15.8129 17.2593 15.8066 17.2656C15.8002 17.272 15.7952 17.2797 15.792 17.2881C15.7889 17.2963 15.7875 17.3051 15.788 17.3139C15.7885 17.3227 15.7909 17.3313 15.795 17.3391C16.094 17.9081 16.435 18.4541 16.815 18.9741C16.8229 18.9847 16.8338 18.9926 16.8464 18.9967C16.8589 19.0008 16.8724 19.0009 16.885 18.9971C18.6808 18.457 20.3723 17.6172 21.888 16.5131C21.8953 16.5079 21.9014 16.5012 21.9059 16.4934C21.9104 16.4856 21.9131 16.477 21.914 16.4681C22.331 12.2231 21.215 8.53609 18.957 5.26709ZM8.68301 14.2321C7.69801 14.2321 6.88601 13.3421 6.88601 12.2481C6.88601 11.1551 7.68201 10.2651 8.68301 10.2651C9.69301 10.2651 10.496 11.1621 10.481 12.2481C10.481 13.3411 9.68501 14.2321 8.68301 14.2321ZM15.329 14.2321C14.344 14.2321 13.532 13.3421 13.532 12.2481C13.532 11.1551 14.328 10.2651 15.329 10.2651C16.339 10.2651 17.142 11.1621 17.126 12.2481C17.126 13.3411 16.338 14.2321 15.329 14.2321Z" fill="white"/>
</svg>
