<svg width="24" height="24" viewBox="0 0 24 24" fill="none" xmlns="http://www.w3.org/2000/svg">
<g clip-path="url(#clip0_23_9354)">
<path d="M19 6.5C19 6.89782 18.842 7.27936 18.5607 7.56066C18.2794 7.84196 17.8978 8 17.5 8C17.1022 8 16.7206 7.84196 16.4393 7.56066C16.158 7.27936 16 6.89782 16 6.5C16 6.10218 16.158 5.72064 16.4393 5.43934C16.7206 5.15804 17.1022 5 17.5 5C17.8978 5 18.2794 5.15804 18.5607 5.43934C18.842 5.72064 19 6.10218 19 6.5Z" fill="white"/>
<path fill-rule="evenodd" clip-rule="evenodd" d="M12 17C13.3261 17 14.5979 16.4732 15.5355 15.5355C16.4732 14.5979 17 13.3261 17 12C17 10.6739 16.4732 9.40215 15.5355 8.46447C14.5979 7.52678 13.3261 7 12 7C10.6739 7 9.40215 7.52678 8.46447 8.46447C7.52678 9.40215 7 10.6739 7 12C7 13.3261 7.52678 14.5979 8.46447 15.5355C9.40215 16.4732 10.6739 17 12 17ZM12 15C12.7956 15 13.5587 14.6839 14.1213 14.1213C14.6839 13.5587 15 12.7956 15 12C15 11.2044 14.6839 10.4413 14.1213 9.87868C13.5587 9.31607 12.7956 9 12 9C11.2044 9 10.4413 9.31607 9.87868 9.87868C9.31607 10.4413 9 11.2044 9 12C9 12.7956 9.31607 13.5587 9.87868 14.1213C10.4413 14.6839 11.2044 15 12 15Z" fill="white"/>
<path fill-rule="evenodd" clip-rule="evenodd" d="M2 11.6C2 8.24 2 6.56 2.654 5.276C3.22923 4.14708 4.14708 3.22923 5.276 2.654C6.56 2 8.24 2 11.6 2H12.4C15.76 2 17.44 2 18.724 2.654C19.8529 3.22923 20.7708 4.14708 21.346 5.276C22 6.56 22 8.24 22 11.6V12.4C22 15.76 22 17.44 21.346 18.724C20.7708 19.8529 19.8529 20.7708 18.724 21.346C17.44 22 15.76 22 12.4 22H11.6C8.24 22 6.56 22 5.276 21.346C4.14708 20.7708 3.22923 19.8529 2.654 18.724C2 17.44 2 15.76 2 12.4V11.6ZM11.6 4H12.4C14.113 4 15.278 4.002 16.178 4.075C17.055 4.147 17.503 4.277 17.816 4.436C18.5686 4.81949 19.1805 5.43139 19.564 6.184C19.724 6.497 19.854 6.945 19.924 7.822C19.998 8.722 20 9.887 20 11.6V12.4C20 14.113 19.998 15.278 19.925 16.178C19.853 17.055 19.723 17.503 19.564 17.816C19.1805 18.5686 18.5686 19.1805 17.816 19.564C17.503 19.724 17.055 19.854 16.178 19.924C15.278 19.998 14.113 20 12.4 20H11.6C9.887 20 8.722 19.998 7.822 19.925C6.945 19.853 6.497 19.723 6.184 19.564C5.43139 19.1805 4.81949 18.5686 4.436 17.816C4.276 17.503 4.146 17.055 4.076 16.178C4.001 15.278 4 14.113 4 12.4V11.6C4 9.887 4.002 8.722 4.075 7.822C4.147 6.945 4.277 6.497 4.436 6.184C4.81949 5.43139 5.43139 4.81949 6.184 4.436C6.497 4.276 6.945 4.146 7.822 4.076C8.722 4.001 9.887 4 11.6 4Z" fill="white"/>
</g>
<defs>
<clipPath id="clip0_23_9354">
<rect width="24" height="24" fill="white"/>
</clipPath>
</defs>
</svg>
