<svg width="24" height="24" viewBox="0 0 24 24" fill="none" xmlns="http://www.w3.org/2000/svg">
<g clip-path="url(#clip0_23_9362)">
<path d="M22.3679 6.3779C21.6009 6.7179 20.7759 6.9479 19.9099 7.0509C20.8036 6.51658 21.4723 5.67519 21.7909 4.6839C20.9515 5.18253 20.0329 5.53393 19.0749 5.7229C18.4308 5.0346 17.5774 4.57827 16.6473 4.42478C15.7172 4.27129 14.7625 4.42925 13.9313 4.87411C13.1002 5.31896 12.4393 6.02583 12.0511 6.8849C11.663 7.74398 11.5694 8.70718 11.7849 9.6249C10.0836 9.53988 8.41907 9.09798 6.89956 8.32789C5.38005 7.5578 4.0395 6.47674 2.96494 5.1549C2.58426 5.80741 2.38408 6.54947 2.38494 7.3049C2.38494 8.7899 3.14094 10.0999 4.28894 10.8669C3.60945 10.8452 2.94499 10.6615 2.35094 10.3309V10.3859C2.35135 11.3737 2.69327 12.331 3.31875 13.0955C3.94423 13.86 4.8148 14.3848 5.78294 14.5809C5.15283 14.7516 4.49213 14.7765 3.85094 14.6539C4.12427 15.5038 4.65636 16.2471 5.37282 16.7798C6.08929 17.3125 6.95431 17.6079 7.84694 17.6249C6.95952 18.3222 5.94328 18.8376 4.85641 19.1417C3.76954 19.4458 2.63337 19.5325 1.51294 19.3969C3.46933 20.6542 5.7464 21.3214 8.07194 21.3189C15.9419 21.3189 20.2449 14.7989 20.2449 9.1459C20.2449 8.9599 20.2409 8.7759 20.2329 8.5919C21.071 7.98682 21.7941 7.23767 22.3679 6.3779Z" fill="white"/>
</g>
<defs>
<clipPath id="clip0_23_9362">
<rect width="24" height="24" fill="white"/>
</clipPath>
</defs>
</svg>
