<svg width="110" height="49" viewBox="0 0 110 49" fill="none" xmlns="http://www.w3.org/2000/svg">
<g clip-path="url(#clip0_11_1696)">
<path d="M99.7857 17.2858C94.1446 17.2858 89.5714 21.8589 89.5714 27.5C89.5714 33.1412 94.1446 37.7143 99.7857 37.7143C105.427 37.7143 110 33.1412 110 27.5C110 21.8589 105.427 17.2858 99.7857 17.2858ZM99.7857 33.6231C96.4065 33.6231 93.6571 30.8738 93.6571 27.4946C93.6571 24.1154 96.4065 21.366 99.7857 21.366C103.165 21.366 105.914 24.1154 105.914 27.4946C105.909 30.8738 103.165 33.6231 99.7857 33.6231Z" fill="white"/>
<path d="M55.7766 17.2858H51.8572V37.7089V37.7143H66V33.6297H55.7766V29.5451H61.7972V25.455H55.7766V21.3704H66V17.2858H55.7766Z" fill="white"/>
<path d="M87.8083 25.5065H77.6981H77.4461V29.5922H83.5473C82.6929 31.9418 80.431 33.6286 77.7912 33.6286C74.412 33.6286 71.6626 30.8793 71.6626 27.5C71.6626 24.1208 74.412 21.3715 77.7912 21.3715C78.9468 21.3715 80.0312 21.6946 80.9513 22.2532L83.8924 19.3122C82.1891 18.0416 80.075 17.2858 77.7857 17.2858C72.1446 17.2858 67.5714 21.8589 67.5714 27.5C67.5714 33.1412 72.1446 37.7143 77.7857 37.7143C83.4268 37.7143 88 33.1412 88 27.5C88 26.8209 87.9343 26.1582 87.8083 25.5174V25.5065Z" fill="white"/>
<path d="M23.5714 0C10.5516 0 0 10.5516 0 23.5714C0 36.5912 10.5516 47.1429 23.5714 47.1429C36.5912 47.1429 47.1428 36.5912 47.1428 23.5714C47.1428 10.5516 36.586 0 23.5714 0ZM3.92594 23.5714C3.92594 22.9136 3.95751 22.2558 4.02067 21.6084H7.97293C7.89399 22.2505 7.85189 22.9083 7.85189 23.5714C7.85189 24.2345 7.89399 24.8923 7.97293 25.5344H4.02067C3.95751 24.8871 3.92594 24.2345 3.92594 23.5714ZM37.4596 37.4648C33.7494 41.175 28.8183 43.2169 23.5714 43.2169C18.3246 43.2169 13.3935 41.175 9.6833 37.4648C7.40457 35.1861 5.75736 32.4495 4.82585 29.4656H8.99915C11.3305 35.2282 16.9773 39.291 23.5714 39.291C31.5865 39.291 38.2016 33.2915 39.1647 25.5397H36.8438H27.7552H11.9462C11.841 24.9029 11.7831 24.245 11.7831 23.5767C11.7831 22.9083 11.841 22.2505 11.9462 21.6137H23.8398V17.6878H13.3619C15.4038 14.1618 19.214 11.7883 23.5714 11.7883C27.9289 11.7883 31.7391 14.1618 33.781 17.6878H38.1437C35.8124 11.9199 30.1655 7.85713 23.5714 7.85713C16.9773 7.85713 11.3252 11.9199 8.99389 17.6825H4.82059C5.75736 14.6933 7.40457 11.9567 9.67803 9.68327C13.3882 5.9731 18.3193 3.9312 23.5662 3.9312C28.813 3.9312 33.7441 5.9731 37.4543 9.68327C41.1645 13.3934 43.2064 18.3246 43.2064 23.5714C43.2116 28.8183 41.1697 33.7547 37.4596 37.4648ZM13.3619 29.4656H33.781C31.7391 32.9916 27.9289 35.365 23.5714 35.365C19.214 35.365 15.3985 32.9863 13.3619 29.4656Z" fill="white"/>
</g>
<defs>
<clipPath id="clip0_11_1696">
<rect width="110" height="48.7143" fill="white"/>
</clipPath>
</defs>
</svg>
