<svg width="110" height="49" viewBox="0 0 110 49" fill="none" xmlns="http://www.w3.org/2000/svg">
<g clip-path="url(#clip0_11_1696)">
<path d="M99.7857 17.2858C94.1446 17.2858 89.5714 21.859 89.5714 27.5001C89.5714 33.1412 94.1446 37.7144 99.7857 37.7144C105.427 37.7144 110 33.1412 110 27.5001C110 21.859 105.427 17.2858 99.7857 17.2858ZM99.7857 33.6232C96.4065 33.6232 93.6571 30.8738 93.6571 27.4946C93.6571 24.1154 96.4065 21.3661 99.7857 21.3661C103.165 21.3661 105.914 24.1154 105.914 27.4946C105.909 30.8738 103.165 33.6232 99.7857 33.6232Z" fill="white"/>
<path d="M55.7766 17.2858H51.8572V37.7089V37.7144H66V33.6298H55.7766V29.5452H61.7972V25.4551H55.7766V21.3704H66V17.2858H55.7766Z" fill="white"/>
<path d="M87.8083 25.5065H77.6981H77.4461V29.5923H83.5473C82.6929 31.9418 80.431 33.6287 77.7912 33.6287C74.412 33.6287 71.6626 30.8793 71.6626 27.5001C71.6626 24.1209 74.412 21.3715 77.7912 21.3715C78.9468 21.3715 80.0312 21.6947 80.9513 22.2533L83.8924 19.3123C82.1891 18.0416 80.075 17.2858 77.7857 17.2858C72.1446 17.2858 67.5714 21.859 67.5714 27.5001C67.5714 33.1412 72.1446 37.7144 77.7857 37.7144C83.4268 37.7144 88 33.1412 88 27.5001C88 26.821 87.9343 26.1583 87.8083 25.5175V25.5065Z" fill="white"/>
<path d="M23.5714 0.00012207C10.5516 0.00012207 0 10.5517 0 23.5715C0 36.5914 10.5516 47.143 23.5714 47.143C36.5912 47.143 47.1428 36.5914 47.1428 23.5715C47.1428 10.5517 36.586 0.00012207 23.5714 0.00012207ZM3.92594 23.5715C3.92594 22.9137 3.95751 22.2559 4.02067 21.6086H7.97293C7.89399 22.2506 7.85189 22.9084 7.85189 23.5715C7.85189 24.2346 7.89399 24.8925 7.97293 25.5345H4.02067C3.95751 24.8872 3.92594 24.2346 3.92594 23.5715ZM37.4596 37.465C33.7494 41.1751 28.8183 43.217 23.5714 43.217C18.3246 43.217 13.3935 41.1751 9.6833 37.465C7.40457 35.1862 5.75736 32.4496 4.82585 29.4657H8.99915C11.3305 35.2283 16.9773 39.2911 23.5714 39.2911C31.5865 39.2911 38.2016 33.2917 39.1647 25.5398H36.8438H27.7552H11.9462C11.841 24.903 11.7831 24.2452 11.7831 23.5768C11.7831 22.9084 11.841 22.2506 11.9462 21.6138H23.8398V17.6879H13.3619C15.4038 14.1619 19.214 11.7885 23.5714 11.7885C27.9289 11.7885 31.7391 14.1619 33.781 17.6879H38.1437C35.8124 11.92 30.1655 7.85725 23.5714 7.85725C16.9773 7.85725 11.3252 11.92 8.99389 17.6826H4.82059C5.75736 14.6934 7.40457 11.9569 9.67803 9.68339C13.3882 5.97322 18.3193 3.93132 23.5662 3.93132C28.813 3.93132 33.7441 5.97322 37.4543 9.68339C41.1645 13.3936 43.2064 18.3247 43.2064 23.5715C43.2116 28.8184 41.1697 33.7548 37.4596 37.465ZM13.3619 29.4657H33.781C31.7391 32.9917 27.9289 35.3652 23.5714 35.3652C19.214 35.3652 15.3985 32.9864 13.3619 29.4657Z" fill="white"/>
</g>
<defs>
<clipPath id="clip0_11_1696">
<rect width="110" height="48.7143" fill="white"/>
</clipPath>
</defs>
</svg>
